<svg id="Layer_1" data-name="Layer 1" xmlns="http://www.w3.org/2000/svg" viewBox="0 0 928.78 473.37"><defs><style>.cls-1{fill:#fff;}.cls-2{fill:#e8651f;}.cls-3{fill:#149D99;}.cls-4{fill:none;stroke:#fff;stroke-miterlimit:10;stroke-width:0.2px;}</style></defs><g id="Group_9364" data-name="Group 9364"><path id="Path_2884" data-name="Path 2884" class="cls-1" d="M615.42,493.05a6.17,6.17,0,0,1-4.08-7.64,6.08,6.08,0,0,1,7.52-4.18h0a6.19,6.19,0,0,1,1.26,11.32,6,6,0,0,1-4.7.5" transform="translate(-520.24 -293.23)"/><path id="Path_2885" data-name="Path 2885" class="cls-1" d="M615.93,498.52a1.22,1.22,0,0,1,.94-1.45l.26,0a9.79,9.79,0,0,0,9.59-6.91,9.94,9.94,0,0,0-3.92-11.22,1.4,1.4,0,0,1-.55-1.9.94.94,0,0,1,.12-.18,1.29,1.29,0,0,1,1.79-.26l.09.09a12.67,12.67,0,0,1,4.9,14.16,12.45,12.45,0,0,1-12,8.82,1.21,1.21,0,0,1-1.2-1.21h0" transform="translate(-520.24 -293.23)"/><path id="Path_2886" data-name="Path 2886" class="cls-1" d="M640.31,540.43a6.29,6.29,0,0,1,2,6.64A6.15,6.15,0,0,1,631,548.2a6.3,6.3,0,0,1,.69-6.91,6.12,6.12,0,0,1,8.62-.9l0,0" transform="translate(-520.24 -293.23)"/><path id="Path_2887" data-name="Path 2887" class="cls-1" d="M645.71,548.76a10,10,0,0,0-3.16-11.46,9.78,9.78,0,0,0-11.77-.25,1.36,1.36,0,0,1-1.73-.46,1.39,1.39,0,0,1,.19-1.79,12.41,12.41,0,0,1,14.9.39,12.76,12.76,0,0,1,4,14.53,1.29,1.29,0,0,1-.61.83,1.26,1.26,0,0,1-1,.12,1.37,1.37,0,0,1-.85-.81,1.38,1.38,0,0,1,.07-1.19" transform="translate(-520.24 -293.23)"/><path id="Path_2888" data-name="Path 2888" class="cls-1" d="M668.2,452.79a6.85,6.85,0,1,1,6.78-6.92v.07a6.82,6.82,0,0,1-6.78,6.85" transform="translate(-520.24 -293.23)"/><path id="Path_2889" data-name="Path 2889" class="cls-1" d="M668.2,457a10.91,10.91,0,0,0,10.47-8,1.31,1.31,0,0,1,.75-.86,1.28,1.28,0,0,1,1.13.08,1.31,1.31,0,0,1,.84.63,1.28,1.28,0,0,1,.11,1,13.77,13.77,0,0,1-26.43.52,1.46,1.46,0,0,1,0-1.16,1.44,1.44,0,0,1,.81-.83,1.52,1.52,0,0,1,2,1,10.93,10.93,0,0,0,10.3,7.47" transform="translate(-520.24 -293.23)"/><path id="Path_2890" data-name="Path 2890" class="cls-1" d="M704.16,542.94a6.41,6.41,0,0,1-.54,7,6.23,6.23,0,0,1-6.62,2.18,6.36,6.36,0,0,1-1.34-11.64,6.23,6.23,0,0,1,8.48,2.39l0,0" transform="translate(-520.24 -293.23)"/><path id="Path_2891" data-name="Path 2891" class="cls-1" d="M691.71,533.92h-47L630.09,488.7l38.11-28,38,28Z" transform="translate(-520.24 -293.23)"/><path id="Path_2892" data-name="Path 2892" class="cls-1" d="M705.79,538.86a10,10,0,0,0-11.71-1.72,10.2,10.2,0,0,0-5.2,10.74,1.43,1.43,0,0,1-.13,1.18,1.31,1.31,0,0,1-2.44-.57,12.85,12.85,0,0,1,6.5-13.8,12.58,12.58,0,0,1,15,2.26,1.23,1.23,0,0,1,0,1.73h0a1.18,1.18,0,0,1-1.62.45,1.31,1.31,0,0,1-.27-.19" transform="translate(-520.24 -293.23)"/><path id="Path_2893" data-name="Path 2893" class="cls-1" d="M731.71,537a72.74,72.74,0,0,1-90.78,32.29,74.11,74.11,0,0,1-43.81-86.62,73,73,0,0,1,144,16.24A72.22,72.22,0,1,0,731.62,537" transform="translate(-520.24 -293.23)"/><path id="Path_2894" data-name="Path 2894" class="cls-1" d="M708.11,491.92a12.67,12.67,0,0,1,3-14.49,1.28,1.28,0,0,1,1.8-.17l.09.08a1.4,1.4,0,0,1-.06,2l-.12.1A10,10,0,0,0,710.65,491a9.84,9.84,0,0,0,10.24,5.6,1.26,1.26,0,0,1,1.37,1.14.91.91,0,0,1,0,.17,1.19,1.19,0,0,1-.23.91,1.17,1.17,0,0,1-.8.47,12.51,12.51,0,0,1-13.13-7.37" transform="translate(-520.24 -293.23)"/><path id="Path_2895" data-name="Path 2895" class="cls-1" d="M722,492.44a6.06,6.06,0,0,1-8-3.07l0-.06a6.18,6.18,0,0,1,3.08-8.12,6.06,6.06,0,0,1,8,3l0,.06a6.22,6.22,0,0,1,.13,4.72,6.16,6.16,0,0,1-3.22,3.43" transform="translate(-520.24 -293.23)"/><path id="Path_2896" data-name="Path 2896" class="cls-2" d="M669.23,396.22c-57.08,0-103.33,46.77-103.33,104.47s46.26,104.46,103.33,104.46,103.33-46.77,103.33-104.46S726.29,396.22,669.23,396.22m71.91,106.12a72.68,72.68,0,0,1-8,31.75L731.62,537a71.63,71.63,0,0,1-89.45,31.26,73,73,0,0,1-42.81-85.33,71.92,71.92,0,0,1,141.79,16v3.56" transform="translate(-520.24 -293.23)"/><path id="Path_2897" data-name="Path 2897" class="cls-3" d="M674.89,445.93a6.78,6.78,0,1,1-6.78-6.85,6.78,6.78,0,0,1,6.78,6.85" transform="translate(-520.24 -293.23)"/><path id="Path_2898" data-name="Path 2898" class="cls-3" d="M681.41,449.75a13.77,13.77,0,0,1-26.43.52,1.48,1.48,0,0,1,.77-2,1.53,1.53,0,0,1,2.06,1.12,10.87,10.87,0,0,0,20.77-.52,1.29,1.29,0,0,1,.75-.86,1.5,1.5,0,0,1,2.08,1.74" transform="translate(-520.24 -293.23)"/><path id="Path_2899" data-name="Path 2899" class="cls-3" d="M722,492.44a6.06,6.06,0,0,1-8-3.07l0-.06a6.18,6.18,0,0,1,3.08-8.12,6.06,6.06,0,0,1,8,3l0,.06a6.22,6.22,0,0,1,.13,4.72,6.16,6.16,0,0,1-3.22,3.43" transform="translate(-520.24 -293.23)"/><path id="Path_2900" data-name="Path 2900" class="cls-3" d="M722.26,497.91a1.23,1.23,0,0,1-.22.91,1.27,1.27,0,0,1-.81.48,12.42,12.42,0,0,1-13.16-7.1,12.68,12.68,0,0,1,3-14.77,1.28,1.28,0,0,1,1.8-.17l.08.08a1.39,1.39,0,0,1,0,2l-.12.1A10.07,10.07,0,0,0,710.64,491a9.85,9.85,0,0,0,10.25,5.6,1.26,1.26,0,0,1,1.37,1.14.91.91,0,0,1,0,.17" transform="translate(-520.24 -293.23)"/><path id="Path_2901" data-name="Path 2901" class="cls-3" d="M623.06,488.88a6.09,6.09,0,0,1-7.5,4.23h0a6.16,6.16,0,0,1-4.19-7.6,6.06,6.06,0,0,1,11.18-1.32,6.26,6.26,0,0,1,.54,4.7" transform="translate(-520.24 -293.23)"/><path id="Path_2902" data-name="Path 2902" class="cls-3" d="M629.15,490.7a12.45,12.45,0,0,1-12.1,9,1.2,1.2,0,0,1-1.12-1.21c-.09-1.13.6-1.48,1.2-1.48a9.79,9.79,0,0,0,9.46-6.9,9.94,9.94,0,0,0-3.8-11.14,1.38,1.38,0,0,1-.69-.94,1.43,1.43,0,0,1,.26-1.15,1.28,1.28,0,0,1,1.79-.25.39.39,0,0,1,.1.08,12.75,12.75,0,0,1,4.9,14" transform="translate(-520.24 -293.23)"/><path id="Path_2903" data-name="Path 2903" class="cls-3" d="M701.75,551.44a6.2,6.2,0,0,1-7-.54,6.38,6.38,0,0,1-2.15-6.7,6.24,6.24,0,0,1,11.51-1.34,6.37,6.37,0,0,1-2.41,8.59" transform="translate(-520.24 -293.23)"/><path id="Path_2904" data-name="Path 2904" class="cls-3" d="M707.68,538.6a1.2,1.2,0,0,1-1.63.46,1,1,0,0,1-.26-.2,10,10,0,0,0-11.71-1.72,10.18,10.18,0,0,0-5.2,10.74,1.43,1.43,0,0,1-.13,1.18,1.31,1.31,0,0,1-2.45-.57,12.9,12.9,0,0,1,6.5-13.81,12.61,12.61,0,0,1,15,2.27,1.22,1.22,0,0,1,0,1.73h0" transform="translate(-520.24 -293.23)"/><path id="Path_2905" data-name="Path 2905" class="cls-3" d="M641.16,549.19a6.16,6.16,0,0,1-6.58,2,6.23,6.23,0,1,1,7.29-8.88,6.21,6.21,0,0,1-.71,6.84" transform="translate(-520.24 -293.23)"/><path id="Path_2906" data-name="Path 2906" class="cls-3" d="M648.12,549.71a1.32,1.32,0,0,1-.65.88,1.26,1.26,0,0,1-1.07.07,1.39,1.39,0,0,1-.77-2,10.06,10.06,0,0,0-3.24-11.28,9.79,9.79,0,0,0-11.61-.35,1.37,1.37,0,0,1-1.73-.46,1.39,1.39,0,0,1,.18-1.79,12.42,12.42,0,0,1,14.91.39,12.76,12.76,0,0,1,4,14.53" transform="translate(-520.24 -293.23)"/><path id="Path_2907" data-name="Path 2907" class="cls-3" d="M706.22,488.7l-14.51,45.21h-47L630.09,488.7l38.11-28Z" transform="translate(-520.24 -293.23)"/><path id="Path_2908" data-name="Path 2908" class="cls-4" d="M644.68,533.92l23.52-73.23,23.51,73.23L630.09,488.7h76.13Z" transform="translate(-520.24 -293.23)"/><path id="Path_2909" data-name="Path 2909" class="cls-3" d="M671.63,351.27c-63.17,0-93.29,29-104.79,40.61V293.23c-12.87,13.1-46.6,53.7-46.6,53.7V501.47c0,61.86,45,150.19,149.93,150.19,80,0,147.44-63.86,147.44-152.36.09-66.38-49.09-148-146-148m-2.4,253.88c-57.08,0-103.33-46.77-103.33-104.47s46.26-104.46,103.33-104.46S772.56,443,772.56,500.69,726.29,605.15,669.23,605.15" transform="translate(-520.24 -293.23)"/><path id="Path_2910" data-name="Path 2910" class="cls-3" d="M1299.08,350.67a145.7,145.7,0,0,0-111,50.93c-11.68,13-27.56,31.58-41.8,48.59l-17.85,21.6-.43.44c-6,7.37-10.81,13.28-13.39,16.74,0-.34-.08-.78-.08-1.13L1049,563.94a101.26,101.26,0,0,1-10.3,12h-.09a102.47,102.47,0,0,1-127.14,14.32A105,105,0,0,1,868,468.59a103.08,103.08,0,0,1,200.22,17.27l36.56-39.23c-18.62-49.19-63.25-96-139.63-96-80,0-147.45,63.86-147.45,152.36,0,66.37,49.19,148,146.07,148,63.16,0,93.29-29.06,104.79-40.6s40.33-45.12,71.14-80.87h0l82-96.05a102.56,102.56,0,0,1,127.24-23.91,104.92,104.92,0,0,1,50.53,120.46A103.1,103.1,0,0,1,1198,518.21l-35.53,40.35c19.3,49.19,64.62,92.49,135.17,92.49,63.16,0,93.29-29.06,104.79-40.6v41.38H1449v-151c0-61.86-45-150.19-149.93-150.19" transform="translate(-520.24 -293.23)"/><path id="Path_2911" data-name="Path 2911" class="cls-2" d="M580.6,691a4.91,4.91,0,0,1,2.88,3.83,5.92,5.92,0,0,1-1.3,4.74,4.47,4.47,0,0,1-3.21,1.92,6.5,6.5,0,0,1-3.89-.79,37,37,0,0,0-6.89-2.7,28,28,0,0,0-7.68-1A30.22,30.22,0,0,0,549,699.06a25.09,25.09,0,0,0-8.86,6,26.54,26.54,0,0,0-5.69,9.2,33.28,33.28,0,0,0-2,11.73,34.22,34.22,0,0,0,2.14,12.59,26.73,26.73,0,0,0,5.92,9.25,24.15,24.15,0,0,0,8.92,5.64,32.3,32.3,0,0,0,11.11,1.87,31,31,0,0,0,7.5-.91,27.93,27.93,0,0,0,6.94-2.7,6.71,6.71,0,0,1,4-.73,4.69,4.69,0,0,1,3.22,2,5.57,5.57,0,0,1,1.41,4.79,5.22,5.22,0,0,1-2.88,3.67,35.54,35.54,0,0,1-6.2,2.69,52.75,52.75,0,0,1-6.88,1.81,37.73,37.73,0,0,1-7.11.68,43.39,43.39,0,0,1-15.34-2.7,38.84,38.84,0,0,1-12.87-7.9,36.4,36.4,0,0,1-8.86-12.75A43.88,43.88,0,0,1,520.24,726a42.48,42.48,0,0,1,3-16.07,37.13,37.13,0,0,1,8.46-12.75,39.24,39.24,0,0,1,12.81-8.35,41.85,41.85,0,0,1,16-3,40.82,40.82,0,0,1,10.55,1.35A40.4,40.4,0,0,1,580.6,691Zm87.67,35a44.44,44.44,0,0,1-2.82,16,39.32,39.32,0,0,1-8,12.92,36.76,36.76,0,0,1-12.12,8.63,39.14,39.14,0,0,1-30.58,0,36.8,36.8,0,0,1-12.13-8.63,38.81,38.81,0,0,1-7.89-12.92,47.47,47.47,0,0,1,0-31.93,38.83,38.83,0,0,1,7.9-12.92A36.76,36.76,0,0,1,630,685.34a37.33,37.33,0,0,1,15.34,3.11,36.8,36.8,0,0,1,12.13,8.63,39.49,39.49,0,0,1,8,12.92A44.39,44.39,0,0,1,668.27,726Zm-12.19,0a33,33,0,0,0-3.32-15,26.16,26.16,0,0,0-9.2-10.5,25.65,25.65,0,0,0-27,0,26,26,0,0,0-9.13,10.44,36.2,36.2,0,0,0,0,30.07,26,26,0,0,0,9.13,10.49,25.6,25.6,0,0,0,27,0A26.24,26.24,0,0,0,652.75,741a32.9,32.9,0,0,0,3.33-15ZM688,686.36a6.73,6.73,0,0,1,2.82.68,5.09,5.09,0,0,1,2.26,1.92l28.66,43.66-4.86-.22L746.12,689a5.43,5.43,0,0,1,4.62-2.6,5.73,5.73,0,0,1,4,1.64,5.4,5.4,0,0,1,1.75,4.12V759.7a5.73,5.73,0,0,1-1.58,4.12,5.54,5.54,0,0,1-4.18,1.63,5.83,5.83,0,0,1-4.34-1.63,5.62,5.62,0,0,1-1.64-4.12V702.5l3.62.79-24.83,37.79a7.09,7.09,0,0,1-2,1.75,5.6,5.6,0,0,1-5.13,0,6.79,6.79,0,0,1-2.09-1.75l-23.92-37.23,2.7-4.51V759.7a5.84,5.84,0,0,1-1.52,4.12,5.22,5.22,0,0,1-4,1.63,5.07,5.07,0,0,1-3.89-1.63,5.81,5.81,0,0,1-1.53-4.12V692.12a5.47,5.47,0,0,1,1.75-4.06A5.76,5.76,0,0,1,688,686.36Zm92.74,0a6.73,6.73,0,0,1,2.82.68,5.09,5.09,0,0,1,2.26,1.92l28.66,43.66-4.85-.22L838.86,689a5.46,5.46,0,0,1,4.63-2.6,5.69,5.69,0,0,1,4,1.64,5.37,5.37,0,0,1,1.75,4.12V759.7a5.69,5.69,0,0,1-1.58,4.12,5.5,5.5,0,0,1-4.17,1.63,5.83,5.83,0,0,1-4.34-1.63,5.62,5.62,0,0,1-1.64-4.12V702.5l3.61.79L816.3,741.08a7.09,7.09,0,0,1-2,1.75,5.6,5.6,0,0,1-5.13,0,6.79,6.79,0,0,1-2.09-1.75l-23.93-37.23,2.7-4.51V759.7a5.84,5.84,0,0,1-1.52,4.12,5.22,5.22,0,0,1-4,1.63,5.07,5.07,0,0,1-3.89-1.63,5.8,5.8,0,0,1-1.52-4.12V692.12a5.42,5.42,0,0,1,1.74-4.06A5.78,5.78,0,0,1,780.75,686.36Zm143,0a5.06,5.06,0,0,1,3.94,1.64,5.92,5.92,0,0,1,1.47,4.12v42.75A32.65,32.65,0,0,1,925.17,751a28.76,28.76,0,0,1-10.83,11.11,33.48,33.48,0,0,1-31.76,0A29,29,0,0,1,871.64,751a32.23,32.23,0,0,1-4-16.13V692.12a5.46,5.46,0,0,1,1.69-4.12,6.06,6.06,0,0,1,4.4-1.64,5.57,5.57,0,0,1,3.89,1.64,5.39,5.39,0,0,1,1.75,4.12v42.75A20,20,0,0,0,882,745.3a19.34,19.34,0,0,0,7.06,7,18.39,18.39,0,0,0,9.34,2.55,20,20,0,0,0,17.21-9.54,19.31,19.31,0,0,0,2.76-10.43V692.12a6,6,0,0,1,1.42-4.11A4.85,4.85,0,0,1,923.7,686.36Zm83,.11a4.82,4.82,0,0,1,3.67,1.53,5.38,5.38,0,0,1,1.41,3.78V759.7a5.61,5.61,0,0,1-5.45,5.75h-.31a7.46,7.46,0,0,1-2.42-.45,4.43,4.43,0,0,1-2-1.25l-46.38-60.12,2.59-1.47v58.11a5,5,0,0,1-1.46,3.66,5.37,5.37,0,0,1-7.51,0,5.22,5.22,0,0,1-1.41-3.66v-68a5.45,5.45,0,0,1,1.69-4.17,5.76,5.76,0,0,1,4.07-1.58,7.56,7.56,0,0,1,2.65.51,4.08,4.08,0,0,1,2.09,1.52l45.24,58.89-1.69,1.58v-57.2A5.21,5.21,0,0,1,1003,688a5,5,0,0,1,3.72-1.52Zm35.31,73.23a6.07,6.07,0,0,1-10.21,4.11,5.53,5.53,0,0,1-1.63-4.11V692.23a5.46,5.46,0,0,1,1.69-4.12,6.06,6.06,0,0,1,4.4-1.63,5.63,5.63,0,0,1,4,1.63,5.38,5.38,0,0,1,1.75,4.12ZM1116.4,691a4.91,4.91,0,0,1,2.88,3.83,5.94,5.94,0,0,1-1.3,4.74,4.47,4.47,0,0,1-3.21,1.92,6.58,6.58,0,0,1-3.89-.79A36.36,36.36,0,0,0,1104,698a28.41,28.41,0,0,0-7.67-1,30.48,30.48,0,0,0-11.57,2.09,25.44,25.44,0,0,0-8.86,6,26.36,26.36,0,0,0-5.69,9.2,33.25,33.25,0,0,0-2,11.73,34.38,34.38,0,0,0,2.15,12.58,26.59,26.59,0,0,0,5.92,9.25,24,24,0,0,0,8.92,5.64,32.3,32.3,0,0,0,11.11,1.87,31,31,0,0,0,7.5-.91,27.93,27.93,0,0,0,6.94-2.7,6.72,6.72,0,0,1,4-.73,4.69,4.69,0,0,1,3.21,2,5.57,5.57,0,0,1,1.41,4.79,5.22,5.22,0,0,1-2.88,3.67,35.54,35.54,0,0,1-6.2,2.69,52.75,52.75,0,0,1-6.88,1.81,37.65,37.65,0,0,1-7.11.68,43.39,43.39,0,0,1-15.34-2.7,38.94,38.94,0,0,1-12.87-7.9,36.4,36.4,0,0,1-8.86-12.75A43.6,43.6,0,0,1,1056,726a42.37,42.37,0,0,1,3-16.08,36.87,36.87,0,0,1,8.47-12.76,39.09,39.09,0,0,1,12.8-8.35,41.85,41.85,0,0,1,16-3,40.82,40.82,0,0,1,10.55,1.35,40.4,40.4,0,0,1,9.53,3.84Zm43.89,10.15-25.38,60.93a6.22,6.22,0,0,1-2,2.82,5,5,0,0,1-3.05,1,4.67,4.67,0,0,1-3.72-1.41,5.66,5.66,0,0,1-1.36-3.55,5.86,5.86,0,0,1,.34-1.81l28.66-69.27a6.29,6.29,0,0,1,2.31-2.93,5.25,5.25,0,0,1,3.32-.91,5.49,5.49,0,0,1,3.16,1,5.85,5.85,0,0,1,2.15,2.82L1193,758.12a5.79,5.79,0,0,1,.45,2.25,5.39,5.39,0,0,1-5.26,5.53h0a5,5,0,0,1-3.1-1.07,6.4,6.4,0,0,1-2.09-2.76l-25.6-60.59Zm-20.87,44.91,5.08-10.83h31.93l1.91,10.83Zm85.18,19.4a5.83,5.83,0,0,1-4.34-1.63,5.62,5.62,0,0,1-1.64-4.12V692.12h12.07V759.7a5.42,5.42,0,0,1-1.75,4.12,6.11,6.11,0,0,1-4.34,1.63ZM1199,697.31a5.86,5.86,0,0,1-4.06-1.53,5.1,5.1,0,0,1-1.69-4,4.84,4.84,0,0,1,1.69-3.84,6,6,0,0,1,4.06-1.46h51.34a5.64,5.64,0,0,1,4,1.52,5.5,5.5,0,0,1,0,7.84,5.77,5.77,0,0,1-4,1.46Zm81.57,62.39a6.08,6.08,0,0,1-10.21,4.12,5.57,5.57,0,0,1-1.63-4.12V692.23a5.46,5.46,0,0,1,1.69-4.12,6.06,6.06,0,0,1,4.4-1.63,5.65,5.65,0,0,1,4,1.63,5.42,5.42,0,0,1,1.75,4.12ZM1370.82,726a44.23,44.23,0,0,1-2.82,16,39.46,39.46,0,0,1-8,12.92,36.8,36.8,0,0,1-12.13,8.63,39.14,39.14,0,0,1-30.58,0,36.76,36.76,0,0,1-12.12-8.63,38.67,38.67,0,0,1-7.9-12.92,47.39,47.39,0,0,1,0-31.93,38.67,38.67,0,0,1,7.9-12.92,36.76,36.76,0,0,1,12.12-8.63,37.58,37.58,0,0,1,42.71,8.63,39.46,39.46,0,0,1,8,12.92A44.43,44.43,0,0,1,1370.82,726Zm-12.18,0a33,33,0,0,0-3.32-15,26.25,26.25,0,0,0-9.21-10.5,25.58,25.58,0,0,0-27,0,25.93,25.93,0,0,0-9.13,10.43,36.2,36.2,0,0,0,0,30.07,25.88,25.88,0,0,0,9.13,10.49,25.58,25.58,0,0,0,27,0,26.19,26.19,0,0,0,9.2-10.49,33.15,33.15,0,0,0,3.33-15Zm85.3-39.48a4.74,4.74,0,0,1,3.66,1.52,5.33,5.33,0,0,1,1.41,3.78V759.7a5.59,5.59,0,0,1-5.44,5.75h-.31a7.21,7.21,0,0,1-2.43-.45,4.5,4.5,0,0,1-2-1.24l-46.37-60.13,2.59-1.47v58.11a5.06,5.06,0,0,1-1.47,3.66,5.36,5.36,0,0,1-7.5,0,5.18,5.18,0,0,1-1.41-3.66v-68a5.41,5.41,0,0,1,1.69-4.17,5.72,5.72,0,0,1,4.06-1.58,7.47,7.47,0,0,1,2.65.51,4,4,0,0,1,2.09,1.52l45.24,58.89-1.69,1.58v-57.2a5.21,5.21,0,0,1,1.47-3.78,4.92,4.92,0,0,1,3.72-1.52Z" transform="translate(-520.24 -293.23)"/></g></svg>