<svg xmlns="http://www.w3.org/2000/svg" xmlns:xlink="http://www.w3.org/1999/xlink" width="220.91" height="405.672" viewBox="0 0 220.91 405.672"><defs><style>.a{fill:url(#a);}.b{fill:#fff;}.c{filter:url(#b);}</style><linearGradient id="a" x1="0.5" x2="0.5" y2="1" gradientUnits="objectBoundingBox"><stop offset="0" stop-color="#57ffd1"/><stop offset="1" stop-color="#00be8a"/></linearGradient><filter id="b" x="0" y="0" width="220.91" height="405.672" filterUnits="userSpaceOnUse"><feOffset dy="2" input="SourceAlpha"/><feGaussianBlur stdDeviation="2" result="c"/><feFlood flood-opacity="0.4"/><feComposite operator="in" in2="c"/><feComposite in="SourceGraphic"/></filter></defs><g transform="translate(-224.001 -1803.101)"><g class="c" transform="matrix(1, 0, 0, 1, 224, 1803.1)"><path class="a" d="M2715.062-349.168l184.714,184.712a12.1,12.1,0,0,1,0,17.111L2715.062,37.368a12.1,12.1,0,0,1-20.653-8.555V-340.614A12.1,12.1,0,0,1,2715.062-349.168Z" transform="translate(-2688.41 356.74)"/></g><path class="b" d="M22.89,14.295a2.607,2.607,0,0,1-2.226-1.258L17.207,7.3l-3.452,5.732A2.615,2.615,0,0,1,11.523,14.3a2.473,2.473,0,0,1-.715-.1L3.441,12.09v9.572a1.715,1.715,0,0,0,1.3,1.667l11.626,2.909a3.5,3.5,0,0,0,1.667,0l11.636-2.909a1.724,1.724,0,0,0,1.3-1.667V12.09l-7.367,2.1A2.473,2.473,0,0,1,22.89,14.295ZM34.323,8.261,31.553,2.733a.878.878,0,0,0-.9-.479L17.207,3.97l4.931,8.179a.884.884,0,0,0,.995.393L33.774,9.5A.886.886,0,0,0,34.323,8.261ZM2.86,2.733.091,8.261A.877.877,0,0,0,.634,9.5l10.642,3.038a.884.884,0,0,0,.995-.393L17.207,3.97,3.753,2.255A.879.879,0,0,0,2.86,2.733Z" transform="translate(242.046 1971.575)"/></g></svg>