<svg xmlns="http://www.w3.org/2000/svg" xmlns:xlink="http://www.w3.org/1999/xlink" width="428.665" height="227.653" viewBox="0 0 428.665 227.653"><defs><style>.a{fill:url(#a);}.b{fill:#fff;}.c{filter:url(#b);}</style><linearGradient id="a" x1="0.5" x2="0.5" y2="1" gradientUnits="objectBoundingBox"><stop offset="0" stop-color="#46c6ff"/><stop offset="1" stop-color="#0035ad"/></linearGradient><filter id="b" x="0" y="0" width="428.665" height="227.653" filterUnits="userSpaceOnUse"><feOffset dy="2" input="SourceAlpha"/><feGaussianBlur stdDeviation="2" result="c"/><feFlood flood-opacity="0.4"/><feComposite operator="in" in2="c"/><feComposite in="SourceGraphic"/></filter></defs><g transform="translate(-247.338 -2004.453)"><g class="c" transform="matrix(1, 0, 0, 1, 247.34, 2004.45)"><path class="a" d="M2719.5,30.453,2910.959-161a12.1,12.1,0,0,1,8.556-3.544H3120.5a12.1,12.1,0,0,1,12.1,12.1V39.007a12.1,12.1,0,0,1-12.1,12.1H2728.059A12.1,12.1,0,0,1,2719.5,30.453Z" transform="translate(-2709.94 168.55)"/></g><path class="b" d="M29.861,16.667,22.811,6.595a6.144,6.144,0,0,0-10.8,1.382A6.01,6.01,0,0,0,0,8.273V20.318a6.023,6.023,0,1,0,12.045,0V12.3a6.231,6.231,0,0,0,.688,1.344l7.055,10.072a6.147,6.147,0,1,0,10.072-7.05ZM8.6,14.3H3.442V8.273a2.581,2.581,0,0,1,5.162,0ZM19.079,16.71l-3.528-5.039a2.707,2.707,0,1,1,4.436-3.1l3.528,5.039-4.436,3.1Z" transform="translate(438.537 2090.521)"/></g></svg>