<svg xmlns="http://www.w3.org/2000/svg" width="208.91" height="393.672" viewBox="0 0 208.91 393.672"><defs><style>.a{fill:#ccc;}.b{fill:#fff;}</style></defs><g transform="translate(-229.999 -2310.101)"><path class="a" d="M2715.062-349.168l184.714,184.712a12.1,12.1,0,0,1,0,17.111L2715.062,37.368a12.1,12.1,0,0,1-20.653-8.555V-340.614A12.1,12.1,0,0,1,2715.062-349.168Z" transform="translate(-2464.41 2662.838)"/><path class="b" d="M22.89,14.295a2.607,2.607,0,0,1-2.226-1.258L17.207,7.3l-3.452,5.732A2.615,2.615,0,0,1,11.523,14.3a2.473,2.473,0,0,1-.715-.1L3.441,12.09v9.572a1.715,1.715,0,0,0,1.3,1.667l11.626,2.909a3.5,3.5,0,0,0,1.667,0l11.636-2.909a1.724,1.724,0,0,0,1.3-1.667V12.09l-7.367,2.1A2.473,2.473,0,0,1,22.89,14.295ZM34.323,8.261,31.553,2.733a.878.878,0,0,0-.9-.479L17.207,3.97l4.931,8.179a.884.884,0,0,0,.995.393L33.774,9.5A.886.886,0,0,0,34.323,8.261ZM2.86,2.733.091,8.261A.877.877,0,0,0,.634,9.5l10.642,3.038a.884.884,0,0,0,.995-.393L17.207,3.97,3.753,2.255A.879.879,0,0,0,2.86,2.733Z" transform="translate(242.045 2474.575)"/></g></svg>