<svg xmlns="http://www.w3.org/2000/svg" width="80" height="944.008" viewBox="0 0 80 944.008"><defs><style>.a,.e{fill:#565656;}.b,.c,.d{fill:none;}.c,.d{stroke:#ff6700;stroke-linecap:round;stroke-linejoin:round;stroke-width:4px;}.d{opacity:0;}.e{font-size:14px;font-family:Muli-Medium, Muli;font-weight:500;}</style></defs><g transform="translate(-1073 -2030)"><path class="a" d="M0,668H6V-124H0l8-14,8,14H10V668h6L8,682Z" transform="translate(1105.002 2230)"/><g transform="translate(1101 2034)"><rect class="b" width="22.544" height="22.544" transform="translate(0.728 0.728)"/><g transform="translate(0 0)"><line class="c" x1="16.971" y2="16.971" transform="translate(12 0) rotate(45)"/><line class="c" x2="16.971" y2="16.971" transform="translate(12 0) rotate(45)"/></g></g><g transform="translate(1101 2946.008)"><rect class="b" width="22.544" height="22.544" transform="translate(0.728 0.728)"/><g transform="translate(0 0)"><line class="c" x1="16.971" y2="16.971" transform="translate(12 0) rotate(45)"/><line class="d" x2="16.971" y2="16.971" transform="translate(12 0) rotate(45)"/></g></g><text class="e" transform="translate(1113 2934)"><tspan x="-39.655" y="0">Insignificant</tspan></text><text class="e" transform="translate(1113 2080)"><tspan x="-32.522" y="0">Important</tspan></text></g></svg>