<svg xmlns="http://www.w3.org/2000/svg" width="1116.758" height="59.999" viewBox="0 0 1116.758 59.999">
  <g id="Group_5713" data-name="Group 5713" transform="translate(1 -1351)">
    <g id="_4" data-name="4" transform="translate(-1 1351)" fill="#6eb144" stroke-linecap="round" stroke-linejoin="round">
      <path d="M30,60A30,30,0,0,1,30,0H1087.17l29.588,29.588L1087.17,59.176h0V60Z" stroke="none"/>
      <path d="M 1086.76953125 59.59941482543945 L 1086.76953125 59.17498779296875 C 1086.76953125 59.05854797363281 1086.820190429688 58.95055389404297 1086.904418945312 58.87606811523438 L 1116.192016601562 29.58756065368652 L 1087.004638671875 0.3999862670898438 L 29.99976348876953 0.3999862670898438 C 26.00376319885254 0.3999862670898438 22.12733459472656 1.182557702064514 18.47847747802734 2.725986242294312 C 14.95376300811768 4.216843605041504 11.78819179534912 6.351129055023193 9.06976318359375 9.069700241088867 C 6.351191997528076 11.78812885284424 4.216906070709229 14.95370101928711 2.726049184799194 18.47841453552246 C 1.182620525360107 22.12727165222168 0.4000491201877594 26.00370025634766 0.4000491201877594 29.99970054626465 C 0.4000491201877594 33.99570083618164 1.182620525360107 37.87212753295898 2.726049184799194 41.5209846496582 C 4.216906070709229 45.04570007324219 6.351191997528076 48.21127319335938 9.06976318359375 50.9296989440918 C 11.78819179534912 53.64827346801758 14.95376300811768 55.78255844116211 18.47847747802734 57.27341461181641 C 22.12733459472656 58.81684494018555 26.00376319885254 59.59941482543945 29.99976348876953 59.59941482543945 L 1086.76953125 59.59941482543945 M 1087.16943359375 59.99941635131836 L 29.99976348876953 59.99941635131836 C 13.43162059783936 59.99941635131836 4.910714415018447e-05 46.56784439086914 4.910714415018447e-05 29.99970054626465 C 4.910714415018447e-05 13.43155765533447 13.43162059783936 -1.373944996885257e-05 29.99976348876953 -1.373944996885257e-05 L 1087.16943359375 -1.373944996885257e-05 L 1087.16943359375 0.0008434033952653408 L 1087.170288085938 -1.373944996885257e-05 L 1116.7578125 29.58755683898926 L 1087.170288085938 59.17584228515625 L 1087.16943359375 59.17498779296875 L 1087.16943359375 59.99941635131836 Z" stroke="none" fill="rgba(112,112,112,0.4)"/>
    </g>
    <g id="_4-2" data-name="4" transform="translate(535 1367)">
      <g id="icon-sample-32px" transform="translate(-40)">
        <g id="Group_4937" data-name="Group 4937" transform="translate(13487 1469)">
          <circle id="Ellipse_706" data-name="Ellipse 706" cx="16" cy="16" r="16" transform="translate(-13487 -1469)" fill="#fff"/>
          <path id="Icon_simple-codesandbox" data-name="Icon simple-codesandbox" d="M3,4,9.97,0l6.97,4L17,11.967,9.97,16,3,12ZM4.392,5.654V8.825l2.23,1.24v2.344L9.27,13.94V8.425Zm11.159,0L10.673,8.425V13.94l2.648-1.531V10.067l2.23-1.241V5.653ZM5.089,4.4,9.958,7.163l4.88-2.787L12.257,2.912l-2.273,1.3L7.7,2.9,5.089,4.4Z" transform="translate(-13481 -1461)" fill="#6eb144"/>
        </g>
      </g>
    </g>
  </g>
</svg>
