<svg xmlns="http://www.w3.org/2000/svg" width="300.667" height="59.999" viewBox="0 0 300.667 59.999"><defs><style>.a{fill:#fe944c;stroke-linecap:round;stroke-linejoin:round;}.b,.c{fill:#fff;}.b{font-size:14px;font-family:Muli-Medium, Muli;font-weight:500;}.d,.e{stroke:none;}.e{fill:#fff;}</style></defs><g transform="translate(15479 11297.999)"><g class="a" transform="translate(-15479 -11297.999)"><path class="d" d="M 271.3718872070312 59.79939270019531 L 0.4360454678535461 59.79939270019531 L 29.31865501403809 30.12031555175781 L 29.45438575744629 29.98081588745117 L 29.31865501403809 29.84135437011719 L 0.4745634496212006 0.2000082433223724 L 271.4077453613281 0.2000082433223724 L 300.388427734375 29.98083686828613 L 271.3718872070312 59.79939270019531 Z"/><path class="e" d="M 271.2874450683594 59.59939193725586 L 300.109375 29.98081970214844 L 271.3233642578125 0.4000082314014435 L 0.9482396841049194 0.4000082314014435 L 29.46196365356445 29.70185470581055 C 29.61307907104492 29.85712432861328 29.61307907104492 30.10450744628906 29.46196365356445 30.2597770690918 L 0.9097049236297607 59.59939193725586 L 271.2874450683594 59.59939193725586 M 271.4922180175781 59.99939346313477 L 1.52118388996314e-06 59.99939346313477 L 1.52118388996314e-06 59.96066284179688 L 29.1753101348877 29.98081588745117 L 0.0008861365495249629 8.238572263508104e-06 L 271.4922180175781 8.238572263508104e-06 L 300.6675109863281 29.98081588745117 L 271.4931030273438 59.96158599853516 L 271.4922790527344 59.99843215942383 L 271.4922180175781 59.99939346313477 Z"/></g><g transform="translate(-15404.002 -11284.001)"><text class="b" transform="translate(40.002 21.001)"><tspan x="0" y="0">Customer Insight</tspan></text><path class="c" d="M16,32A16,16,0,0,1,4.688,4.687,16,16,0,0,1,27.315,27.314,15.9,15.9,0,0,1,16,32Zm-.92-13.208a.686.686,0,0,0-.671.7v2.326a.686.686,0,0,0,.671.7h7.91a.686.686,0,0,0,.671-.7V19.49a.686.686,0,0,0-.671-.7Zm-5.074,0a.686.686,0,0,0-.672.7v2.326a.686.686,0,0,0,.672.7h2.835a.686.686,0,0,0,.672-.7V19.49a.686.686,0,0,0-.672-.7Zm5.074-4.652a.686.686,0,0,0-.671.7v2.326a.686.686,0,0,0,.671.7h7.91a.686.686,0,0,0,.671-.7V14.838a.686.686,0,0,0-.671-.7Zm-5.074,0a.686.686,0,0,0-.672.7v2.326a.686.686,0,0,0,.672.7h2.835a.686.686,0,0,0,.672-.7V14.838a.686.686,0,0,0-.672-.7Zm5.074-4.652a.686.686,0,0,0-.671.7v2.326a.686.686,0,0,0,.671.7h7.91a.686.686,0,0,0,.671-.7V10.186a.686.686,0,0,0-.671-.7Zm-5.074,0a.686.686,0,0,0-.672.7v2.326a.686.686,0,0,0,.672.7h2.835a.686.686,0,0,0,.672-.7V10.186a.686.686,0,0,0-.672-.7Z"/></g></g></svg>