<svg xmlns="http://www.w3.org/2000/svg" width="300.667" height="60.001" viewBox="0 0 300.667 60.001"><defs><style>.a{fill:#fe944c;}.a,.d{stroke-linecap:round;stroke-linejoin:round;}.b,.c{fill:#fff;}.b,.e{font-size:14px;font-family:Muli-Medium, Muli;font-weight:500;}.d{fill:#eee;}.e,.f{fill:#888;}.g,.h{stroke:none;}.h{fill:#fff;}</style></defs><g transform="translate(0 0.001)"><g transform="translate(0 -0.001)"><g class="a" transform="translate(0 0)"><path class="g" d="M 271.3718872070312 59.79939270019531 L 0.4360454678535461 59.79939270019531 L 29.31865501403809 30.12031555175781 L 29.45438575744629 29.98081588745117 L 29.31865501403809 29.84135437011719 L 0.4745634496212006 0.2000082433223724 L 271.4077453613281 0.2000082433223724 L 300.388427734375 29.98083686828613 L 271.3718872070312 59.79939270019531 Z"/><path class="h" d="M 271.2874450683594 59.59939193725586 L 300.109375 29.98081970214844 L 271.3233642578125 0.4000082314014435 L 0.9482396841049194 0.4000082314014435 L 29.46196365356445 29.70185470581055 C 29.61307907104492 29.85712432861328 29.61307907104492 30.10450744628906 29.46196365356445 30.2597770690918 L 0.9097049236297607 59.59939193725586 L 271.2874450683594 59.59939193725586 M 271.4922180175781 59.99939346313477 L 1.52118388996314e-06 59.99939346313477 L 1.52118388996314e-06 59.96066284179688 L 29.1753101348877 29.98081588745117 L 0.0008861365495249629 8.238572263508104e-06 L 271.4922180175781 8.238572263508104e-06 L 300.6675109863281 29.98081588745117 L 271.4931030273438 59.96158599853516 L 271.4922790527344 59.99843215942383 L 271.4922180175781 59.99939346313477 Z"/></g><g transform="translate(80.834 13.499)"><text class="b" transform="translate(40 21.001)"><tspan x="0" y="0">Define Solution</tspan></text><path class="c" d="M16,32A16,16,0,0,1,4.687,4.686,16,16,0,0,1,27.314,27.314,15.9,15.9,0,0,1,16,32ZM8.555,7a1.554,1.554,0,0,0-1.326.742A1.544,1.544,0,0,0,7,8.556V23.445A1.555,1.555,0,0,0,8.555,25H23.446A1.557,1.557,0,0,0,25,23.445V8.556A1.558,1.558,0,0,0,23.446,7Zm14.891,16.59H9.631l7.882-6.882H23.59v6.738A.144.144,0,0,1,23.446,23.589ZM8.411,22.78V9.22L16.175,16,8.412,22.778ZM23.59,15.294H17.512L9.631,8.412H23.446a.144.144,0,0,1,.144.144v6.736Z" transform="translate(0)"/></g></g><g transform="translate(0 0.001)"><g class="a" transform="translate(0 0)"><path class="g" d="M 271.3718872070312 59.79939270019531 L 0.4360454678535461 59.79939270019531 L 29.31865501403809 30.12031555175781 L 29.45438575744629 29.98081588745117 L 29.31865501403809 29.84135437011719 L 0.4745634496212006 0.2000082433223724 L 271.4077453613281 0.2000082433223724 L 300.388427734375 29.98083686828613 L 271.3718872070312 59.79939270019531 Z"/><path class="h" d="M 271.2874450683594 59.59939193725586 L 300.109375 29.98081970214844 L 271.3233642578125 0.4000082314014435 L 0.9482396841049194 0.4000082314014435 L 29.46196365356445 29.70185470581055 C 29.61307907104492 29.85712432861328 29.61307907104492 30.10450744628906 29.46196365356445 30.2597770690918 L 0.9097049236297607 59.59939193725586 L 271.2874450683594 59.59939193725586 M 271.4922180175781 59.99939346313477 L 1.52118388996314e-06 59.99939346313477 L 1.52118388996314e-06 59.96066284179688 L 29.1753101348877 29.98081588745117 L 0.0008861365495249629 8.238572263508104e-06 L 271.4922180175781 8.238572263508104e-06 L 300.6675109863281 29.98081588745117 L 271.4931030273438 59.96158599853516 L 271.4922790527344 59.99843215942383 L 271.4922180175781 59.99939346313477 Z"/></g><g transform="translate(103 13.499)"><text class="b" transform="translate(40 21.001)"><tspan x="0" y="0">Ranking</tspan></text><path class="c" d="M16,32A16,16,0,0,1,4.687,4.686,16,16,0,0,1,27.314,27.314,15.9,15.9,0,0,1,16,32ZM6.63,23.9a.184.184,0,0,0-.184.184v.88a.184.184,0,0,0,.184.184H24.549a.184.184,0,0,0,.184-.184v-.88a.184.184,0,0,0-.184-.184H23.81V15.93a.184.184,0,0,0-.184-.184h-2.8a.184.184,0,0,0-.184.184V23.9H19.387V17.734a.185.185,0,0,0-.184-.184H16.4a.184.184,0,0,0-.184.184V23.9H14.963V12.952a.184.184,0,0,0-.184-.184h-2.8a.184.184,0,0,0-.184.184V23.9H10.539V20.138a.184.184,0,0,0-.184-.184h-2.8a.185.185,0,0,0-.185.184V23.9Zm6.748-13.237a.2.2,0,0,1,.09.022l.863.454a.4.4,0,0,0,.5-.1.4.4,0,0,0,.088-.328l-.083-.481-.082-.481a.2.2,0,0,1,.006-.093.206.206,0,0,1,.049-.08l.7-.681a.4.4,0,0,0,.122-.28.4.4,0,0,0-.345-.408l-.221-.033-.744-.108a.2.2,0,0,1-.147-.106l-.431-.876a.4.4,0,0,0-.723,0l-.431.876a.2.2,0,0,1-.147.106l-.966.141a.4.4,0,0,0-.223.688l.7.681a.2.2,0,0,1,.057.173l-.166.963a.394.394,0,0,0,0,.13.4.4,0,0,0,.587.3l.863-.454A.2.2,0,0,1,13.378,10.658Z" transform="translate(0)"/></g></g><g transform="translate(0 -0.001)"><g class="d" transform="translate(0 0)"><path class="g" d="M 271.3718872070312 59.79939270019531 L 0.4360454678535461 59.79939270019531 L 29.31865501403809 30.12031555175781 L 29.45438575744629 29.98081588745117 L 29.31865501403809 29.84135437011719 L 0.4745634496212006 0.2000082433223724 L 271.4077453613281 0.2000082433223724 L 300.388427734375 29.98083686828613 L 271.3718872070312 59.79939270019531 Z"/><path class="h" d="M 271.2874450683594 59.59939193725586 L 300.109375 29.98081970214844 L 271.3233642578125 0.4000082314014435 L 0.9482396841049194 0.4000082314014435 L 29.46196365356445 29.70185470581055 C 29.61307907104492 29.85712432861328 29.61307907104492 30.10450744628906 29.46196365356445 30.2597770690918 L 0.9097049236297607 59.59939193725586 L 271.2874450683594 59.59939193725586 M 271.4922180175781 59.99939346313477 L 1.52118388996314e-06 59.99939346313477 L 1.52118388996314e-06 59.96066284179688 L 29.1753101348877 29.98081588745117 L 0.0008861365495249629 8.238572263508104e-06 L 271.4922180175781 8.238572263508104e-06 L 300.6675109863281 29.98081588745117 L 271.4931030273438 59.96158599853516 L 271.4922790527344 59.99843215942383 L 271.4922180175781 59.99939346313477 Z"/></g><g transform="translate(80.834 13.499)"><text class="e" transform="translate(40 21.001)"><tspan x="0" y="0">Define Solution</tspan></text><path class="f" d="M16,32A16,16,0,0,1,4.687,4.686,16,16,0,0,1,27.314,27.314,15.9,15.9,0,0,1,16,32ZM8.555,7a1.554,1.554,0,0,0-1.326.742A1.544,1.544,0,0,0,7,8.556V23.445A1.555,1.555,0,0,0,8.555,25H23.446A1.557,1.557,0,0,0,25,23.445V8.556A1.558,1.558,0,0,0,23.446,7Zm14.891,16.59H9.631l7.882-6.882H23.59v6.738A.144.144,0,0,1,23.446,23.589ZM8.411,22.78V9.22L16.175,16,8.412,22.778ZM23.59,15.294H17.512L9.631,8.412H23.446a.144.144,0,0,1,.144.144v6.736Z" transform="translate(0)"/></g></g></g></svg>