<svg xmlns="http://www.w3.org/2000/svg" width="300.667" height="60.001" viewBox="0 0 300.667 60.001"><defs><style>.a{fill:#6eb144;}.a,.d{stroke-linecap:round;stroke-linejoin:round;}.b,.c{fill:#fff;}.b,.e{font-size:14px;font-family:Muli-SemiBold, Muli;font-weight:600;}.d{fill:#eee;}.e,.f{fill:#888;}.g,.h{stroke:none;}.h{fill:#fff;}</style></defs><g transform="translate(0 0.001)"><g transform="translate(0 -0.001)"><g class="a" transform="translate(0 0)"><path class="g" d="M 271.3718872070312 59.79939270019531 L 0.4360454678535461 59.79939270019531 L 29.31865501403809 30.12031555175781 L 29.45438575744629 29.98081588745117 L 29.31865501403809 29.84135437011719 L 0.4745634496212006 0.2000082433223724 L 271.4077453613281 0.2000082433223724 L 300.388427734375 29.98083686828613 L 271.3718872070312 59.79939270019531 Z"/><path class="h" d="M 271.2874450683594 59.59939193725586 L 300.109375 29.98081970214844 L 271.3233642578125 0.4000082314014435 L 0.9482396841049194 0.4000082314014435 L 29.46196365356445 29.70185470581055 C 29.61307907104492 29.85712432861328 29.61307907104492 30.10450744628906 29.46196365356445 30.2597770690918 L 0.9097049236297607 59.59939193725586 L 271.2874450683594 59.59939193725586 M 271.4922180175781 59.99939346313477 L 1.52118388996314e-06 59.99939346313477 L 1.52118388996314e-06 59.96066284179688 L 29.1753101348877 29.98081588745117 L 0.0008861365495249629 8.238572263508104e-06 L 271.4922180175781 8.238572263508104e-06 L 300.6675109863281 29.98081588745117 L 271.4931030273438 59.96158599853516 L 271.4922790527344 59.99843215942383 L 271.4922180175781 59.99939346313477 Z"/></g><g transform="translate(48 14)"><text class="b" transform="translate(39.999 21)"><tspan x="0" y="0">Value Proposition Design</tspan></text><path class="c" d="M16,32A16,16,0,0,1,4.686,4.686,16,16,0,0,1,27.313,27.314,15.9,15.9,0,0,1,16,32ZM13.045,10.772a.794.794,0,0,0-.623.3l-3.4,4.251a.8.8,0,0,0,.017,1.021l6.443,7.528a.8.8,0,0,0,.607.279.794.794,0,0,0,.6-.279l6.443-7.528a.8.8,0,0,0,.017-1.021l-3.4-4.251a.794.794,0,0,0-.623-.3Zm9.923,7.756a.478.478,0,0,0-.478.477c0,1.211-1.413,1.892-1.427,1.9a.478.478,0,0,0,0,.866c.014.007,1.428.7,1.428,1.9a.477.477,0,1,0,.955,0c0-1.183,1.368-1.869,1.427-1.9a.478.478,0,0,0,0-.865c-.014-.006-1.429-.7-1.429-1.9A.478.478,0,0,0,22.968,18.528Zm0-10.685a.478.478,0,0,0-.477.478c0,1.183-1.368,1.869-1.427,1.9a.478.478,0,0,0,0,.865c.014.006,1.429.7,1.429,1.9a.477.477,0,0,0,.955,0c0-1.2,1.413-1.892,1.427-1.9a.478.478,0,0,0,0-.865c-.014-.006-1.428-.7-1.428-1.9A.478.478,0,0,0,22.967,7.844Zm0,14.333h0a3.751,3.751,0,0,0-.811-.839,3.714,3.714,0,0,0,.812-.839,3.712,3.712,0,0,0,.811.839,3.727,3.727,0,0,0-.81.839Zm-6.876-.14v0l-1.334-4.364-.416-1.361h3.5l-.466,1.524-.008.027c-.405,1.324-.915,2.991-1.276,4.174Zm1.045-.147h0l.914-2.99c.338-1.106.648-2.12.792-2.591h3.074Zm-2.091,0-4.778-5.582h3.073c.206.676.708,2.317,1.194,3.905l.006.019.507,1.656Zm6.912-6.537H18.851l-1.012-3.624h1.224l2.895,3.623Zm-4.1,0H14.325l1.012-3.624h1.51l1.011,3.623Zm-4.525,0H10.225l2.9-3.624h1.224l-1.011,3.624Zm9.634-3.861h0a3.7,3.7,0,0,0-.81-.838,3.726,3.726,0,0,0,.811-.84,3.731,3.731,0,0,0,.812.84,3.7,3.7,0,0,0-.811.838Z" transform="translate(0)"/></g></g><g transform="translate(0 0.001)"><g class="a" transform="translate(0 0)"><path class="g" d="M 271.3718872070312 59.79939270019531 L 0.4360454678535461 59.79939270019531 L 29.31865501403809 30.12031555175781 L 29.45438575744629 29.98081588745117 L 29.31865501403809 29.84135437011719 L 0.4745634496212006 0.2000082433223724 L 271.4077453613281 0.2000082433223724 L 300.388427734375 29.98083686828613 L 271.3718872070312 59.79939270019531 Z"/><path class="h" d="M 271.2874450683594 59.59939193725586 L 300.109375 29.98081970214844 L 271.3233642578125 0.4000082314014435 L 0.9482396841049194 0.4000082314014435 L 29.46196365356445 29.70185470581055 C 29.61307907104492 29.85712432861328 29.61307907104492 30.10450744628906 29.46196365356445 30.2597770690918 L 0.9097049236297607 59.59939193725586 L 271.2874450683594 59.59939193725586 M 271.4922180175781 59.99939346313477 L 1.52118388996314e-06 59.99939346313477 L 1.52118388996314e-06 59.96066284179688 L 29.1753101348877 29.98081588745117 L 0.0008861365495249629 8.238572263508104e-06 L 271.4922180175781 8.238572263508104e-06 L 300.6675109863281 29.98081588745117 L 271.4931030273438 59.96158599853516 L 271.4922790527344 59.99843215942383 L 271.4922180175781 59.99939346313477 Z"/></g><g transform="translate(48 14)"><text class="b" transform="translate(39.999 21)"><tspan x="0" y="0">Value Proposition Design</tspan></text><path class="c" d="M16,32A16,16,0,0,1,4.686,4.686,16,16,0,0,1,27.313,27.314,15.9,15.9,0,0,1,16,32ZM13.045,10.772a.794.794,0,0,0-.623.3l-3.4,4.251a.8.8,0,0,0,.017,1.021l6.443,7.528a.8.8,0,0,0,.607.279.794.794,0,0,0,.6-.279l6.443-7.528a.8.8,0,0,0,.017-1.021l-3.4-4.251a.794.794,0,0,0-.623-.3Zm9.923,7.756a.478.478,0,0,0-.478.477c0,1.211-1.413,1.892-1.427,1.9a.478.478,0,0,0,0,.866c.014.007,1.428.7,1.428,1.9a.477.477,0,1,0,.955,0c0-1.183,1.368-1.869,1.427-1.9a.478.478,0,0,0,0-.865c-.014-.006-1.429-.7-1.429-1.9A.478.478,0,0,0,22.968,18.528Zm0-10.685a.478.478,0,0,0-.477.478c0,1.183-1.368,1.869-1.427,1.9a.478.478,0,0,0,0,.865c.014.006,1.429.7,1.429,1.9a.477.477,0,0,0,.955,0c0-1.2,1.413-1.892,1.427-1.9a.478.478,0,0,0,0-.865c-.014-.006-1.428-.7-1.428-1.9A.478.478,0,0,0,22.967,7.844Zm0,14.333h0a3.751,3.751,0,0,0-.811-.839,3.714,3.714,0,0,0,.812-.839,3.712,3.712,0,0,0,.811.839,3.727,3.727,0,0,0-.81.839Zm-6.876-.14v0l-1.334-4.364-.416-1.361h3.5l-.466,1.524-.008.027c-.405,1.324-.915,2.991-1.276,4.174Zm1.045-.147h0l.914-2.99c.338-1.106.648-2.12.792-2.591h3.074Zm-2.091,0-4.778-5.582h3.073c.206.676.708,2.317,1.194,3.905l.006.019.507,1.656Zm6.912-6.537H18.851l-1.012-3.624h1.224l2.895,3.623Zm-4.1,0H14.325l1.012-3.624h1.51l1.011,3.623Zm-4.525,0H10.225l2.9-3.624h1.224l-1.011,3.624Zm9.634-3.861h0a3.7,3.7,0,0,0-.81-.838,3.726,3.726,0,0,0,.811-.84,3.731,3.731,0,0,0,.812.84,3.7,3.7,0,0,0-.811.838Z" transform="translate(0)"/></g></g><g transform="translate(0 -0.001)"><g class="d" transform="translate(0 0)"><path class="g" d="M 271.3718872070312 59.79939270019531 L 0.4360454678535461 59.79939270019531 L 29.31865501403809 30.12031555175781 L 29.45438575744629 29.98081588745117 L 29.31865501403809 29.84135437011719 L 0.4745634496212006 0.2000082433223724 L 271.4077453613281 0.2000082433223724 L 300.388427734375 29.98083686828613 L 271.3718872070312 59.79939270019531 Z"/><path class="h" d="M 271.2874450683594 59.59939193725586 L 300.109375 29.98081970214844 L 271.3233642578125 0.4000082314014435 L 0.9482396841049194 0.4000082314014435 L 29.46196365356445 29.70185470581055 C 29.61307907104492 29.85712432861328 29.61307907104492 30.10450744628906 29.46196365356445 30.2597770690918 L 0.9097049236297607 59.59939193725586 L 271.2874450683594 59.59939193725586 M 271.4922180175781 59.99939346313477 L 1.52118388996314e-06 59.99939346313477 L 1.52118388996314e-06 59.96066284179688 L 29.1753101348877 29.98081588745117 L 0.0008861365495249629 8.238572263508104e-06 L 271.4922180175781 8.238572263508104e-06 L 300.6675109863281 29.98081588745117 L 271.4931030273438 59.96158599853516 L 271.4922790527344 59.99843215942383 L 271.4922180175781 59.99939346313477 Z"/></g><g transform="translate(49 14.5)"><text class="e" transform="translate(39.999 21)"><tspan x="0" y="0">Value Proposition Design</tspan></text><path class="f" d="M16,32A16,16,0,0,1,4.686,4.686,16,16,0,0,1,27.313,27.314,15.9,15.9,0,0,1,16,32ZM13.045,10.772a.794.794,0,0,0-.623.3l-3.4,4.251a.8.8,0,0,0,.017,1.021l6.443,7.528a.8.8,0,0,0,.607.279.794.794,0,0,0,.6-.279l6.443-7.528a.8.8,0,0,0,.017-1.021l-3.4-4.251a.794.794,0,0,0-.623-.3Zm9.923,7.756a.478.478,0,0,0-.478.477c0,1.211-1.413,1.892-1.427,1.9a.478.478,0,0,0,0,.866c.014.007,1.428.7,1.428,1.9a.477.477,0,1,0,.955,0c0-1.183,1.368-1.869,1.427-1.9a.478.478,0,0,0,0-.865c-.014-.006-1.429-.7-1.429-1.9A.478.478,0,0,0,22.968,18.528Zm0-10.685a.478.478,0,0,0-.477.478c0,1.183-1.368,1.869-1.427,1.9a.478.478,0,0,0,0,.865c.014.006,1.429.7,1.429,1.9a.477.477,0,0,0,.955,0c0-1.2,1.413-1.892,1.427-1.9a.478.478,0,0,0,0-.865c-.014-.006-1.428-.7-1.428-1.9A.478.478,0,0,0,22.967,7.844Zm0,14.333h0a3.751,3.751,0,0,0-.811-.839,3.714,3.714,0,0,0,.812-.839,3.712,3.712,0,0,0,.811.839,3.727,3.727,0,0,0-.81.839Zm-6.876-.14v0l-1.334-4.364-.416-1.361h3.5l-.466,1.524-.008.027c-.405,1.324-.915,2.991-1.276,4.174Zm1.045-.147h0l.914-2.99c.338-1.106.648-2.12.792-2.591h3.074Zm-2.091,0-4.778-5.582h3.073c.206.676.708,2.317,1.194,3.905l.006.019.507,1.656Zm6.912-6.537H18.851l-1.012-3.624h1.224l2.895,3.623Zm-4.1,0H14.325l1.012-3.624h1.51l1.011,3.623Zm-4.525,0H10.225l2.9-3.624h1.224l-1.011,3.624Zm9.634-3.861h0a3.7,3.7,0,0,0-.81-.838,3.726,3.726,0,0,0,.811-.84,3.731,3.731,0,0,0,.812.84,3.7,3.7,0,0,0-.811.838Z" transform="translate(0)"/></g></g></g></svg>