<svg xmlns="http://www.w3.org/2000/svg" width="300.667" height="59.999" viewBox="0 0 300.667 59.999"><defs><style>.a{fill:#eee;stroke-linecap:round;stroke-linejoin:round;}.b,.c{fill:#aaa;}.b{font-size:14px;font-family:Muli-Medium, Muli;font-weight:500;}.d,.e{stroke:none;}.e{fill:#fff;}</style></defs><g transform="translate(15207 11178.999)"><g class="a" transform="translate(-15207 -11178.999)"><path class="d" d="M 271.3718872070312 59.79939270019531 L 0.4360454678535461 59.79939270019531 L 29.31865501403809 30.12031555175781 L 29.45438575744629 29.98081588745117 L 29.31865501403809 29.84135437011719 L 0.4745634496212006 0.2000082433223724 L 271.4077453613281 0.2000082433223724 L 300.388427734375 29.98083686828613 L 271.3718872070312 59.79939270019531 Z"/><path class="e" d="M 271.2874450683594 59.59939193725586 L 300.109375 29.98081970214844 L 271.3233642578125 0.4000082314014435 L 0.9482396841049194 0.4000082314014435 L 29.46196365356445 29.70185470581055 C 29.61307907104492 29.85712432861328 29.61307907104492 30.10450744628906 29.46196365356445 30.2597770690918 L 0.9097049236297607 59.59939193725586 L 271.2874450683594 59.59939193725586 M 271.4922180175781 59.99939346313477 L 1.52118388996314e-06 59.99939346313477 L 1.52118388996314e-06 59.96066284179688 L 29.1753101348877 29.98081588745117 L 0.0008861365495249629 8.238572263508104e-06 L 271.4922180175781 8.238572263508104e-06 L 300.6675109863281 29.98081588745117 L 271.4931030273438 59.96158599853516 L 271.4922790527344 59.99843215942383 L 271.4922180175781 59.99939346313477 Z"/></g><g transform="translate(-15138.002 -11164.998)"><text class="b" transform="translate(40.001 20.999)"><tspan x="0" y="0">Evidence Captured</tspan></text><path class="c" d="M19863.117,10773a16,16,0,1,1,11.313-4.687A15.886,15.886,0,0,1,19863.117,10773Zm3.119-19a6,6,0,1,0,6,6A6.008,6.008,0,0,0,19866.236,10754Zm-6-6a6,6,0,0,0-.5,11.979,6.506,6.506,0,0,1,1.094-3.593,3.092,3.092,0,0,0-.594-.06.389.389,0,0,1,0-.778,3.605,3.605,0,0,1,1.107.175,6.492,6.492,0,0,1,4.869-2.226,6,6,0,0,0-5.977-5.5Zm6,15.485a3.622,3.622,0,0,1-2.779-1.3.362.362,0,0,1-.057-.4.42.42,0,0,1,.365-.241.38.38,0,0,1,.291.145,2.835,2.835,0,0,0,4.359,0,.37.37,0,0,1,.287-.142.424.424,0,0,1,.369.242.364.364,0,0,1-.057.4A3.618,3.618,0,0,1,19866.236,10763.482Zm-1.936-3.871a.773.773,0,1,1,.773-.773A.775.775,0,0,1,19864.3,10759.611Zm5.037-.094a.29.29,0,0,1-.193-.076l-.234-.2a1.255,1.255,0,0,0-1.477,0l-.23.2a.279.279,0,0,1-.189.074.3.3,0,0,1-.227-.1.265.265,0,0,1-.061-.229,1.539,1.539,0,0,1,2.9,0,.291.291,0,0,1-.066.234A.294.294,0,0,1,19869.338,10759.518Zm-11.424-1.647a1.152,1.152,0,0,1-1.162-1.138,4.816,4.816,0,0,1,.99-1.857l.018-.023a.189.189,0,0,1,.309,0,4.949,4.949,0,0,1,1.008,1.881A1.152,1.152,0,0,1,19857.914,10757.87Zm4.262-4.261a.773.773,0,1,1,.773-.773A.775.775,0,0,1,19862.176,10753.609Zm-3.873,0a.773.773,0,1,1,.773-.773A.777.777,0,0,1,19858.3,10753.609Z" transform="translate(-19847.117 -10741)"/></g></g></svg>