<svg xmlns="http://www.w3.org/2000/svg" width="48" height="48" viewBox="0 0 48 48"><defs><style>.a{fill:#888;}.b{fill:#eee;}</style></defs><circle class="a" cx="24" cy="24" r="24"/><g transform="translate(10.932 10.932)"><path class="b" d="M20.008,6.943a.81.81,0,0,1-.543-.207,10.178,10.178,0,0,0-13.6,0,.817.817,0,1,1-1.087-1.22,11.812,11.812,0,0,1,15.769,0,.817.817,0,0,1-.543,1.427Z" transform="translate(0.401 0.223)"/><path class="b" d="M21.2,10.89a.815.815,0,0,1-.674-.355,9.382,9.382,0,0,0-15.534,0,.816.816,0,1,1-1.346-.923,11.013,11.013,0,0,1,18.226,0A.816.816,0,0,1,21.2,10.89Z" transform="translate(0.312 0.426)"/><path class="b" d="M10.452,22.582a.816.816,0,0,1-.574-.235c-.144-.142-3.523-3.518-3.523-6.8a6.149,6.149,0,1,1,12.3,0,.817.817,0,1,1-1.634,0,4.515,4.515,0,1,0-9.03,0c0,2.594,3.009,5.6,3.038,5.634a.816.816,0,0,1-.575,1.4Z" transform="translate(0.566 0.832)"/><path class="b" d="M14.754,22.785c-1.61,0-5.338-2.983-5.7-6.305a4.2,4.2,0,0,1,1.013-3.246,3.5,3.5,0,0,1,2.617-1.2,3.647,3.647,0,0,1,2.609,1.072,3.7,3.7,0,0,1,1.1,2.645v.414a1.645,1.645,0,1,0,3.289,0v-.145a7.179,7.179,0,0,0-6.51-7.308,6.844,6.844,0,0,0-5.2,1.861,7.113,7.113,0,0,0-.641,9.667A.817.817,0,0,1,6.06,21.276a8.748,8.748,0,0,1,.79-11.893,8.524,8.524,0,0,1,6.427-2.3,8.816,8.816,0,0,1,8.037,8.939v.145a3.278,3.278,0,1,1-6.556,0v-.414a2.086,2.086,0,0,0-.615-1.488,2.024,2.024,0,0,0-1.438-.6h-.011a1.868,1.868,0,0,0-1.407.651A2.6,2.6,0,0,0,10.68,16.3c.27,2.5,3.279,4.848,4.074,4.848a.817.817,0,0,1,0,1.634Z" transform="translate(0.365 0.629)"/><path class="b" d="M16.532,20.933c-2.413,0-5.329-2.767-5.329-6.2a.817.817,0,0,1,1.634,0c0,2.522,2.236,4.57,3.7,4.57a.817.817,0,1,1,0,1.634Z" transform="translate(0.997 1.239)"/><path class="b" d="M23.926,9.091a.817.817,0,0,1-.817-.817V2.995a1.363,1.363,0,0,0-1.361-1.361h-5.28a.817.817,0,1,1,0-1.634h5.28a3,3,0,0,1,2.995,2.995v5.28A.817.817,0,0,1,23.926,9.091Z" transform="translate(1.393 0)"/><path class="b" d="M.817,9.091A.817.817,0,0,1,0,8.274V2.995A3,3,0,0,1,2.995,0h5.28a.817.817,0,0,1,0,1.634H2.995A1.363,1.363,0,0,0,1.634,2.995v5.28a.817.817,0,0,1-.817.817Z" transform="translate(0 0)"/><path class="b" d="M21.748,24.743h-5.28a.817.817,0,0,1,0-1.634h5.28a1.363,1.363,0,0,0,1.361-1.361v-5.28a.817.817,0,0,1,1.634,0v5.28A3,3,0,0,1,21.748,24.743Z" transform="translate(1.393 1.393)"/><path class="b" d="M8.274,24.743H2.995A3,3,0,0,1,0,21.748v-5.28a.817.817,0,1,1,1.634,0v5.28A1.363,1.363,0,0,0,2.995,23.11h5.28a.817.817,0,0,1,0,1.634Z" transform="translate(0 1.393)"/></g></svg>