<svg xmlns="http://www.w3.org/2000/svg" xmlns:xlink="http://www.w3.org/1999/xlink" width="452.003" height="451.999" viewBox="0 0 452.003 451.999"><defs><style>.a{fill:url(#a);}.b{fill:#fff;}.c{fill:url(#d);}.d{fill:url(#g);}.e{filter:url(#h);}.f{filter:url(#e);}.g{filter:url(#b);}</style><linearGradient id="a" x1="0.5" x2="0.5" y2="1" gradientUnits="objectBoundingBox"><stop offset="0" stop-color="#46c6ff"/><stop offset="1" stop-color="#0035ad"/></linearGradient><filter id="b" x="23.338" y="224.346" width="428.665" height="227.653" filterUnits="userSpaceOnUse"><feOffset dy="2" input="SourceAlpha"/><feGaussianBlur stdDeviation="2" result="c"/><feFlood flood-opacity="0.4"/><feComposite operator="in" in2="c"/><feComposite in="SourceGraphic"/></filter><linearGradient id="d" x1="0.5" x2="0.5" y2="1" gradientUnits="objectBoundingBox"><stop offset="0" stop-color="#86d654"/><stop offset="1" stop-color="#5c9539"/></linearGradient><filter id="e" x="23.338" y="0" width="428.665" height="227.652" filterUnits="userSpaceOnUse"><feOffset dy="2" input="SourceAlpha"/><feGaussianBlur stdDeviation="2" result="f"/><feFlood flood-opacity="0.4"/><feComposite operator="in" in2="f"/><feComposite in="SourceGraphic"/></filter><linearGradient id="g" x1="0.5" x2="0.5" y2="1" gradientUnits="objectBoundingBox"><stop offset="0" stop-color="#57ffd1"/><stop offset="1" stop-color="#00be8a"/></linearGradient><filter id="h" x="0" y="22.994" width="220.91" height="405.672" filterUnits="userSpaceOnUse"><feOffset dy="2" input="SourceAlpha"/><feGaussianBlur stdDeviation="2" result="i"/><feFlood flood-opacity="0.4"/><feComposite operator="in" in2="i"/><feComposite in="SourceGraphic"/></filter></defs><g transform="translate(-304.501 -6125.107)"><g transform="translate(80.5 4345)"><g class="g" transform="matrix(1, 0, 0, 1, 224, 1780.11)"><path class="a" d="M2719.5,30.453,2910.959-161a12.1,12.1,0,0,1,8.556-3.544H3120.5a12.1,12.1,0,0,1,12.1,12.1V39.007a12.1,12.1,0,0,1-12.1,12.1H2728.059A12.1,12.1,0,0,1,2719.5,30.453Z" transform="translate(-2686.6 392.89)"/></g><path class="b" d="M29.861,16.667,22.811,6.595a6.144,6.144,0,0,0-10.8,1.382A6.01,6.01,0,0,0,0,8.273V20.318a6.023,6.023,0,1,0,12.045,0V12.3a6.231,6.231,0,0,0,.688,1.344l7.055,10.072a6.147,6.147,0,1,0,10.072-7.05ZM8.6,14.3H3.442V8.273a2.581,2.581,0,0,1,5.162,0ZM19.079,16.71l-3.528-5.039a2.707,2.707,0,1,1,4.436-3.1l3.528,5.039-4.436,3.1Z" transform="translate(438.537 2090.521)"/></g><g transform="translate(80.5 4345)"><g class="f" transform="matrix(1, 0, 0, 1, 224, 1780.11)"><path class="c" d="M2910.959-162.156,2719.5-353.611a12.1,12.1,0,0,1,8.555-20.653H3120.5a12.1,12.1,0,0,1,12.1,12.1v191.455a12.1,12.1,0,0,1-12.1,12.1H2919.515A12.1,12.1,0,0,1,2910.959-162.156Z" transform="translate(-2686.6 378.26)"/></g><path class="b" d="M17.616,18.051h2.033a.729.729,0,0,0,.678-.678V10.259a.729.729,0,0,0-.678-.678H17.616a.729.729,0,0,0-.678.678v7.114a.729.729,0,0,0,.678.678Zm5.082,0h2.033a.729.729,0,0,0,.678-.678V5.178a.729.729,0,0,0-.678-.678H22.7a.729.729,0,0,0-.678.678v12.2a.729.729,0,0,0,.678.678Zm-15.245,0H9.486a.729.729,0,0,0,.678-.678V13.647a.729.729,0,0,0-.678-.678H7.453a.729.729,0,0,0-.678.678v3.727a.729.729,0,0,0,.678.678Zm5.082,0h2.033a.729.729,0,0,0,.678-.678V6.871a.729.729,0,0,0-.678-.678H12.535a.729.729,0,0,0-.678.678v10.5A.729.729,0,0,0,12.535,18.051Zm13.721,3.388H3.388V5.347A.847.847,0,0,0,2.541,4.5H.847A.847.847,0,0,0,0,5.347V23.133a1.694,1.694,0,0,0,1.694,1.694H26.255a.847.847,0,0,0,.847-.847V22.286A.847.847,0,0,0,26.255,21.439Z" transform="translate(438.688 1865.431)"/></g><g transform="translate(80.5 4345)"><g class="e" transform="matrix(1, 0, 0, 1, 224, 1780.11)"><path class="d" d="M2715.062-349.168l184.714,184.712a12.1,12.1,0,0,1,0,17.111L2715.062,37.368a12.1,12.1,0,0,1-20.653-8.555V-340.614A12.1,12.1,0,0,1,2715.062-349.168Z" transform="translate(-2688.41 379.73)"/></g><path class="b" d="M22.89,14.295a2.607,2.607,0,0,1-2.226-1.258L17.207,7.3l-3.452,5.732A2.615,2.615,0,0,1,11.523,14.3a2.473,2.473,0,0,1-.715-.1L3.441,12.09v9.572a1.715,1.715,0,0,0,1.3,1.667l11.626,2.909a3.5,3.5,0,0,0,1.667,0l11.636-2.909a1.724,1.724,0,0,0,1.3-1.667V12.09l-7.367,2.1A2.473,2.473,0,0,1,22.89,14.295ZM34.323,8.261,31.553,2.733a.878.878,0,0,0-.9-.479L17.207,3.97l4.931,8.179a.884.884,0,0,0,.995.393L33.774,9.5A.886.886,0,0,0,34.323,8.261ZM2.86,2.733.091,8.261A.877.877,0,0,0,.634,9.5l10.642,3.038a.884.884,0,0,0,.995-.393L17.207,3.97,3.753,2.255A.879.879,0,0,0,2.86,2.733Z" transform="translate(242.046 1971.575)"/></g></g></svg>