<svg xmlns="http://www.w3.org/2000/svg" width="24" height="24" viewBox="0 0 24 24"><defs><style>.a{fill:none;}.b{fill:#565656;}</style></defs><g transform="translate(-0.229)"><rect class="a" width="24" height="24" transform="translate(0.229)"/><path class="b" d="M12.675,14.5h1.463a.531.531,0,0,0,.487-.5V8.75a.531.531,0,0,0-.487-.5H12.675a.531.531,0,0,0-.487.5V14A.531.531,0,0,0,12.675,14.5Zm3.656,0h1.462a.531.531,0,0,0,.488-.5V5a.531.531,0,0,0-.488-.5H16.331a.531.531,0,0,0-.488.5v9A.531.531,0,0,0,16.331,14.5Zm-10.969,0H6.825a.531.531,0,0,0,.487-.5V11.25a.531.531,0,0,0-.487-.5H5.363a.531.531,0,0,0-.488.5V14a.531.531,0,0,0,.488.5Zm3.656,0h1.463a.531.531,0,0,0,.487-.5V6.25a.531.531,0,0,0-.487-.5H9.019a.531.531,0,0,0-.487.5V14A.531.531,0,0,0,9.019,14.5ZM18.891,17H2.438V5.125A.617.617,0,0,0,1.828,4.5H.609A.617.617,0,0,0,0,5.125V18.25A1.235,1.235,0,0,0,1.219,19.5H18.891a.617.617,0,0,0,.609-.625v-1.25A.617.617,0,0,0,18.891,17Z" transform="translate(2.25)"/></g></svg>