<svg xmlns="http://www.w3.org/2000/svg" width="24" height="24" viewBox="0 0 24 24"><defs><style>.a{fill:none;}.b{fill:#565656;}</style></defs><rect class="a" width="24" height="24"/><path class="b" d="M0,8.063A7.5,7.5,0,1,0,7.5.563,7.5,7.5,0,0,0,0,8.063ZM6.048,6.611a.968.968,0,1,1-.968-.968A.967.967,0,0,1,6.048,6.611Zm4.793.5A1.571,1.571,0,0,0,9,7.11l-.287.257a.362.362,0,0,1-.6-.327A1.819,1.819,0,0,1,9.922,5.767,1.819,1.819,0,0,1,11.734,7.04a.362.362,0,0,1-.6.327Zm-6.07,3.064a3.553,3.553,0,0,0,5.456,0,.484.484,0,0,1,.744.62,4.52,4.52,0,0,1-6.944,0,.483.483,0,0,1,.744-.617Z" transform="translate(4.5 3.938)"/></svg>