<svg xmlns="http://www.w3.org/2000/svg" width="319.885" height="215.167" viewBox="0 0 319.885 215.167"><defs><style>.a{fill:#ccc;}.b{fill:#fff;}</style></defs><g transform="translate(-734.001 -2287)"><path class="a" d="M2055.289-157.336a11.867,11.867,0,0,1-11.865-12.554A213.221,213.221,0,0,1,2072.1-264.9c57.664-99.259,182.906-135.574,284.63-84.687a11.787,11.787,0,0,1,4.966,16.47L2263-163.241a11.9,11.9,0,0,1-10.291,5.905Z" transform="translate(-1309.402 2659.503)"/><path class="b" d="M0,12.55A11.988,11.988,0,1,0,11.988.563,11.986,11.986,0,0,0,0,12.55Zm9.668-2.32A1.547,1.547,0,1,1,8.121,8.683,1.545,1.545,0,0,1,9.668,10.23Zm7.662.8a2.51,2.51,0,0,0-2.949,0l-.459.411a.579.579,0,0,1-.957-.522,2.907,2.907,0,0,1,2.9-2.035,2.907,2.907,0,0,1,2.9,2.035.579.579,0,0,1-.957.522Zm-9.7,4.9a5.68,5.68,0,0,0,8.72,0,.774.774,0,0,1,1.189.991,7.225,7.225,0,0,1-11.1,0,.772.772,0,0,1,1.189-.986Z" transform="translate(882.425 2370.533)"/></g></svg>