<svg xmlns="http://www.w3.org/2000/svg" xmlns:xlink="http://www.w3.org/1999/xlink" width="428.665" height="227.652" viewBox="0 0 428.665 227.652"><defs><style>.a{fill:url(#a);}.b{fill:#fff;}.c{filter:url(#b);}</style><linearGradient id="a" x1="0.5" x2="0.5" y2="1" gradientUnits="objectBoundingBox"><stop offset="0" stop-color="#86d654"/><stop offset="1" stop-color="#5c9539"/></linearGradient><filter id="b" x="0" y="0" width="428.665" height="227.652" filterUnits="userSpaceOnUse"><feOffset dy="2" input="SourceAlpha"/><feGaussianBlur stdDeviation="2" result="c"/><feFlood flood-opacity="0.4"/><feComposite operator="in" in2="c"/><feComposite in="SourceGraphic"/></filter></defs><g transform="translate(-247.338 -1780.107)"><g class="c" transform="matrix(1, 0, 0, 1, 247.34, 1780.11)"><path class="a" d="M2910.959-162.156,2719.5-353.611a12.1,12.1,0,0,1,8.555-20.653H3120.5a12.1,12.1,0,0,1,12.1,12.1v191.455a12.1,12.1,0,0,1-12.1,12.1H2919.515A12.1,12.1,0,0,1,2910.959-162.156Z" transform="translate(-2709.94 378.26)"/></g><path class="b" d="M17.616,18.051h2.033a.729.729,0,0,0,.678-.678V10.259a.729.729,0,0,0-.678-.678H17.616a.729.729,0,0,0-.678.678v7.114a.729.729,0,0,0,.678.678Zm5.082,0h2.033a.729.729,0,0,0,.678-.678V5.178a.729.729,0,0,0-.678-.678H22.7a.729.729,0,0,0-.678.678v12.2a.729.729,0,0,0,.678.678Zm-15.245,0H9.486a.729.729,0,0,0,.678-.678V13.647a.729.729,0,0,0-.678-.678H7.453a.729.729,0,0,0-.678.678v3.727a.729.729,0,0,0,.678.678Zm5.082,0h2.033a.729.729,0,0,0,.678-.678V6.871a.729.729,0,0,0-.678-.678H12.535a.729.729,0,0,0-.678.678v10.5A.729.729,0,0,0,12.535,18.051Zm13.721,3.388H3.388V5.347A.847.847,0,0,0,2.541,4.5H.847A.847.847,0,0,0,0,5.347V23.133a1.694,1.694,0,0,0,1.694,1.694H26.255a.847.847,0,0,0,.847-.847V22.286A.847.847,0,0,0,26.255,21.439Z" transform="translate(438.688 1865.431)"/></g></svg>