<svg xmlns="http://www.w3.org/2000/svg" width="36" height="36" viewBox="0 0 36 36">
  <g id="hypothesis-icon" transform="translate(-1172 -561)">
    <path id="Path_1751" data-name="Path 1751" d="M18,0A18,18,0,1,1,0,18,18,18,0,0,1,18,0Z" transform="translate(1172 561)" fill="#565656"/>
    <g id="Group_2826" data-name="Group 2826" transform="translate(1178.75 567.75)">
      <path id="Path_1731" data-name="Path 1731" d="M29.278,15.185a1.893,1.893,0,0,1-1.348-.559l-.231-.231-2.284,2.284L28.4,19.668l-.935.935a.911.911,0,1,0,1.288,1.288l.935-.935,2.989,2.989,2.284-2.284-.231-.231a1.907,1.907,0,1,1,2.7-2.7l.231.231,2.284-2.284-2.989-2.989.935-.935A.911.911,0,1,0,36.6,11.467l-.935.935L32.679,9.414,30.395,11.7l.231.231a1.907,1.907,0,0,1-1.348,3.256Z" transform="translate(-17.445 -9.414)" fill="#fff"/>
      <path id="Path_1732" data-name="Path 1732" d="M21.66,30.395l-.231.231a1.907,1.907,0,1,1-2.7-2.7l.231-.231-2.284-2.284L13.691,28.4l-.935-.935a.911.911,0,1,0-1.288,1.288l.935.935L9.414,32.679l7.265,7.265,7.265-7.265ZM17.031,38.51l-.7-.7L17,37.137l.7.7ZM18.4,37.137l-.7-.7.7-.7.7.7Zm1.409-1.409-.7-.7.7-.7.7.7Z" transform="translate(-9.414 -17.444)" fill="#fff"/>
    </g>
  </g>
</svg>
