<svg xmlns="http://www.w3.org/2000/svg" xmlns:xlink="http://www.w3.org/1999/xlink" width="452" height="452" viewBox="0 0 452 452"><defs><style>.a{fill:url(#a);}.b{fill:#fff;}.c{fill:url(#d);}.d{fill:url(#g);}.e{filter:url(#h);}.f{filter:url(#e);}.g{filter:url(#b);}</style><linearGradient id="a" x1="0.5" x2="0.5" y2="1" gradientUnits="objectBoundingBox"><stop offset="0" stop-color="#8ee359"/><stop offset="1" stop-color="#538335"/></linearGradient><filter id="b" x="0.001" y="0" width="331.885" height="227.167" filterUnits="userSpaceOnUse"><feOffset dy="2" input="SourceAlpha"/><feGaussianBlur stdDeviation="2" result="c"/><feFlood flood-opacity="0.4"/><feComposite operator="in" in2="c"/><feComposite in="SourceGraphic"/></filter><linearGradient id="d" x1="0.5" x2="0.5" y2="1" gradientUnits="objectBoundingBox"><stop offset="0" stop-color="#ff5d48"/><stop offset="1" stop-color="#b74600"/></linearGradient><filter id="e" x="0" y="224.834" width="331.884" height="227.167" filterUnits="userSpaceOnUse"><feOffset dy="2" input="SourceAlpha"/><feGaussianBlur stdDeviation="2" result="f"/><feFlood flood-opacity="0.4"/><feComposite operator="in" in2="f"/><feComposite in="SourceGraphic"/></filter><linearGradient id="g" x1="0.5" x2="0.5" y2="1" gradientUnits="objectBoundingBox"><stop offset="0" stop-color="#ff80bb"/><stop offset="1" stop-color="#8700ba"/></linearGradient><filter id="h" x="225.327" y="39.931" width="226.673" height="374.978" filterUnits="userSpaceOnUse"><feOffset dy="2" input="SourceAlpha"/><feGaussianBlur stdDeviation="2" result="i"/><feFlood flood-opacity="0.4"/><feComposite operator="in" in2="i"/><feComposite in="SourceGraphic"/></filter></defs><g transform="translate(-808.5 -6125)"><g transform="translate(80.5 4345)"><g class="g" transform="matrix(1, 0, 0, 1, 728, 1780)"><path class="a" d="M2055.289-157.336a11.867,11.867,0,0,1-11.865-12.554A213.221,213.221,0,0,1,2072.1-264.9c57.664-99.259,182.906-135.574,284.63-84.687a11.787,11.787,0,0,1,4.966,16.47L2263-163.241a11.9,11.9,0,0,1-10.291,5.905Z" transform="translate(-2037.4 376.5)"/></g><path class="b" d="M0,12.55A11.988,11.988,0,1,0,11.988.563,11.986,11.986,0,0,0,0,12.55Zm9.668-2.32A1.547,1.547,0,1,1,8.121,8.683,1.545,1.545,0,0,1,9.668,10.23Zm7.662.8a2.51,2.51,0,0,0-2.949,0l-.459.411a.579.579,0,0,1-.957-.522,2.907,2.907,0,0,1,2.9-2.035,2.907,2.907,0,0,1,2.9,2.035.579.579,0,0,1-.957.522Zm-9.7,4.9a5.68,5.68,0,0,0,8.72,0,.774.774,0,0,1,1.189.991,7.225,7.225,0,0,1-11.1,0,.772.772,0,0,1,1.189-.986Z" transform="translate(882.425 1867.533)"/></g><g transform="translate(80.5 4345)"><g class="f" transform="matrix(1, 0, 0, 1, 728, 1780)"><path class="c" d="M2055.432-158.291a11.867,11.867,0,0,0-11.865,12.554,213.237,213.237,0,0,0,28.674,95.011c57.665,99.26,182.905,135.574,284.631,84.689a11.789,11.789,0,0,0,4.965-16.471l-98.693-169.878a11.9,11.9,0,0,0-10.291-5.905Z" transform="translate(-2037.55 387.13)"/></g><path class="b" d="M11.988.563A11.988,11.988,0,1,0,23.976,12.55,11.986,11.986,0,0,0,11.988.563Zm3.867,8.121a1.547,1.547,0,1,1-1.547,1.547A1.545,1.545,0,0,1,15.855,8.683Zm-8.507,11.6a2.3,2.3,0,0,1-2.32-2.272c0-.967,1.378-2.92,2.011-3.761a.385.385,0,0,1,.619,0c.633.841,2.011,2.794,2.011,3.761A2.3,2.3,0,0,1,7.347,20.284Zm.773-8.507A1.547,1.547,0,1,1,9.668,10.23,1.545,1.545,0,0,1,8.121,11.777Zm8.227,7.454a5.671,5.671,0,0,0-4.36-2.04.773.773,0,0,1,0-1.547,7.192,7.192,0,0,1,5.544,2.6A.771.771,0,0,1,16.348,19.231Z" transform="translate(882.424 2092.367)"/></g><g transform="translate(80.5 4345)"><g class="e" transform="matrix(1, 0, 0, 1, 728, 1780)"><path class="d" d="M2358.487,20.723a11.959,11.959,0,0,0,16.873,3.931,214.627,214.627,0,0,0,68.459-72.1c57.666-99.143,26.691-224.941-68.515-286.975a11.947,11.947,0,0,0-16.835,3.957l-98.693,169.68a11.721,11.721,0,0,0,0,11.8Z" transform="translate(-2026.86 380.29)"/></g><path class="b" d="M6.993,10.866v3.746a1.124,1.124,0,0,1-1.124,1.124H1.124A1.124,1.124,0,0,1,0,14.612V10.866A1.124,1.124,0,0,1,1.124,9.742H5.869a1.124,1.124,0,0,1,1.124,1.124ZM0,18.359V22.1a1.124,1.124,0,0,0,1.124,1.124H5.869A1.124,1.124,0,0,0,6.993,22.1V18.359a1.124,1.124,0,0,0-1.124-1.124H1.124A1.124,1.124,0,0,0,0,18.359ZM5.869,2.25H1.124A1.124,1.124,0,0,0,0,3.374V7.12A1.124,1.124,0,0,0,1.124,8.244H5.869A1.124,1.124,0,0,0,6.993,7.12V3.374A1.124,1.124,0,0,0,5.869,2.25ZM9.615,23.229H22.852A1.124,1.124,0,0,0,23.976,22.1V18.359a1.124,1.124,0,0,0-1.124-1.124H9.615a1.124,1.124,0,0,0-1.124,1.124V22.1A1.124,1.124,0,0,0,9.615,23.229ZM8.491,3.374V7.12A1.124,1.124,0,0,0,9.615,8.244H22.852A1.124,1.124,0,0,0,23.976,7.12V3.374A1.124,1.124,0,0,0,22.852,2.25H9.615A1.124,1.124,0,0,0,8.491,3.374ZM9.615,15.736H22.852a1.124,1.124,0,0,0,1.124-1.124V10.866a1.124,1.124,0,0,0-1.124-1.124H9.615a1.124,1.124,0,0,0-1.124,1.124v3.746A1.124,1.124,0,0,0,9.615,15.736Z" transform="translate(1055.713 1981.242)"/></g></g></svg>