<svg id="invalidated-icon" xmlns="http://www.w3.org/2000/svg" width="36" height="36" viewBox="0 0 36 36">
  <circle id="Ellipse_351" data-name="Ellipse 351" cx="18" cy="18" r="18" fill="#d3d3d3"/>
  <path id="Path_1" data-name="Path 1" d="M198.022,55.562a12.435,12.435,0,0,1-.879,4.608,12.064,12.064,0,0,1-.542,1.178,12.508,12.508,0,0,1-4.149,4.6,7.722,7.722,0,0,0-.772-5.669,7.92,7.92,0,0,0-5.036,7.38c0,.109,0,.218.008.326,0,.048,0,.094.006.14q-.25-.046-.5-.106a12.127,12.127,0,0,1-8.292-6.888,11.943,11.943,0,0,1-.957-3.542,4.319,4.319,0,0,0,1.3,1.874,9.051,9.051,0,0,1-.7-3.954c0-.306.013-.609.035-.91A11.391,11.391,0,0,1,187.1,44.269c.113-.018.227-.034.341-.049q.434-.053.878-.076c.1-.005.208-.009.311-.011.086,0,.173,0,.261,0h.052a12.022,12.022,0,0,1,1.951.158c.09.013.179.028.268.046-.01,0-.019.012-.029.017l-.046.031A9.215,9.215,0,0,0,188.2,57.007a8.339,8.339,0,0,1,8.13-6.483c.216,0,.431.007.644.024A12.412,12.412,0,0,1,198.022,55.562Z" transform="translate(-169.413 -38.129)" fill="#ababab" opacity="0.997"/>
</svg>
