<svg xmlns="http://www.w3.org/2000/svg" width="16" height="16" viewBox="0 0 16 16"><defs><style>.a{fill:#565656;}</style></defs><path class="a" d="M8,16a8,8,0,1,1,8-8A8.009,8.009,0,0,1,8,16ZM8,4A4,4,0,0,0,4,7.873C4,7.923,4,7.963,4,8s0,.076,0,.127a4,4,0,0,0,5.652,3.515l.079-.037.051-.025c.041-.02.072-.036.1-.05a4,4,0,0,0-.066-7.095l-.083-.041-.059-.027L9.6,4.334l-.017-.008A3.978,3.978,0,0,0,8,4Zm0,7.43A3.429,3.429,0,0,1,4.58,8.285H7.822l1.434,2.909A3.428,3.428,0,0,1,8,11.43Zm1.768-.49h0L8.315,8l1.4-2.97a3.431,3.431,0,0,1,.714,5.4,3.48,3.48,0,0,1-.658.514ZM7.818,7.715H4.58A3.434,3.434,0,0,1,9.2,4.784L7.819,7.714Z"/></svg>