<svg xmlns="http://www.w3.org/2000/svg" width="42.182" height="25.197" viewBox="0 0 42.182 25.197"><defs><style>.a{fill:#fff;}</style></defs><g transform="translate(-768.254 -409.761)"><path class="a" d="M804.577,423.24h-.012a5.859,5.859,0,0,0,0,11.718h.012a5.859,5.859,0,0,0,0-11.718ZM805,430.2l-1.483,1.682-2.3-2.3.839-.833,0,0h.005l0,0,1.387,1.4,1.673-1.9,1.949-2.212.322.284.582.513Z"/><path class="a" d="M797.044,427.822h-.05a9.039,9.039,0,0,1-8.319-8.047.53.53,0,0,1,0-.08v-.071h3.271c1.9,0,3.939,0,5.984-.006a.409.409,0,0,1,.408.237c.553.976,1.135,1.986,1.73,3,.091.156.077.233-.064.345a7.372,7.372,0,0,0-2.755,4.434C797.221,427.773,797.167,427.822,797.044,427.822Z"/><path class="a" d="M784.644,427.022H770.131c.022-.037.041-.069.058-.1s.049-.085.073-.123l1.263-1.932c1.084-1.656,2.2-3.368,3.31-5.06a.357.357,0,0,1,.34-.193h9.466v7.4Z"/><path class="a" d="M768.254,426.9V410.778l.07.1c.032.045.054.076.075.109l1.212,1.838c1.256,1.9,2.554,3.872,3.832,5.806a.273.273,0,0,1,.012.356c-1.384,2.1-2.785,4.243-4.14,6.313l-.92,1.406c-.023.035-.048.07-.084.118l-.055.075Z"/><path class="a" d="M801.58,422.245h0l-.194-.337-.21-.364-.411-.713q-.53-.918-1.06-1.834a.28.28,0,0,1-.026-.323c1.069-1.841,2.152-3.715,3.2-5.528l.007-.011.608-1.052a.454.454,0,0,1,.036-.05l.04-.053a9.03,9.03,0,0,1,2.62,9.819,9.453,9.453,0,0,0-1.661-.162q-.347,0-.691.034a8.207,8.207,0,0,0-2.254.576Z"/><path class="a" d="M797.971,418.017H788.9a1.244,1.244,0,0,1-.153-.007l-.109-.007a9.174,9.174,0,0,1,8.979-8.242A9.848,9.848,0,0,1,802.227,411l-.038.082c-.025.053-.044.094-.067.134l-1.308,2.263c-.818,1.417-1.664,2.883-2.494,4.327A.354.354,0,0,1,797.971,418.017Z"/><path class="a" d="M775.184,418.017a.345.345,0,0,1-.332-.166c-1.177-1.791-2.377-3.611-3.538-5.37l-.005-.008-1.092-1.656c-.024-.037-.045-.077-.069-.123l-.042-.08H784.65V418l-.08.006c-.06,0-.117.009-.175.009h-3.07c-2.013,0-4.094,0-6.141,0Z"/></g></svg>