<svg xmlns="http://www.w3.org/2000/svg" width="24" height="24" viewBox="0 0 24 24"><defs><style>.a{fill:none;}.b{fill:#565656;}</style></defs><rect class="a" width="24" height="24"/><path class="b" d="M7.5.563a7.5,7.5,0,1,0,7.5,7.5A7.5,7.5,0,0,0,7.5.563ZM9.919,5.643a.968.968,0,1,1-.968.968A.967.967,0,0,1,9.919,5.643ZM4.6,12.9A1.436,1.436,0,0,1,3.145,11.48,6.206,6.206,0,0,1,4.4,9.127a.241.241,0,0,1,.387,0A6.206,6.206,0,0,1,6.048,11.48,1.436,1.436,0,0,1,4.6,12.9Zm.484-5.323a.968.968,0,1,1,.968-.968A.967.967,0,0,1,5.081,7.579Zm5.147,4.663A3.548,3.548,0,0,0,7.5,10.966.484.484,0,0,1,7.5,10a4.5,4.5,0,0,1,3.469,1.627A.482.482,0,0,1,10.228,12.242Z" transform="translate(4.5 3.938)"/></svg>