<svg xmlns="http://www.w3.org/2000/svg" width="24" height="24" viewBox="0 0 24 24"><defs><style>.a{fill:none;}.b{fill:#565656;}</style></defs><g transform="translate(-0.115)"><rect class="a" width="24" height="24" transform="translate(0.115)"/><path class="b" d="M18.8,11.227,14.361,4.955a3.9,3.9,0,0,0-5.393-.941,3.82,3.82,0,0,0-1.4,1.8A3.76,3.76,0,0,0,3.792,2.25,3.769,3.769,0,0,0,0,6v7.5a3.769,3.769,0,0,0,3.792,3.75A3.769,3.769,0,0,0,7.583,13.5V8.508a3.864,3.864,0,0,0,.433.837l4.442,6.271a3.9,3.9,0,0,0,5.393.941A3.8,3.8,0,0,0,18.8,11.227ZM5.417,9.75H2.167V6a1.625,1.625,0,0,1,3.25,0Zm6.595,1.5L9.791,8.116A1.651,1.651,0,0,1,9.51,6.857a1.673,1.673,0,0,1,.7-1.088,1.716,1.716,0,0,1,2.373.415L14.8,9.321l-2.793,1.932Z" transform="translate(2.25 2.25)"/></g></svg>