<svg xmlns="http://www.w3.org/2000/svg" width="1116" height="64.001" viewBox="0 0 1116 64.001">
  <g id="Group_5715" data-name="Group 5715" transform="translate(-144.5 -1070)">
    <g id="Group_5422" data-name="Group 5422">
      <line id="Line_220" data-name="Line 220" x2="1116" transform="translate(144.5 1102)" fill="none" stroke="#ff6700" stroke-width="4"/>
      <g id="Rectangle_1818" data-name="Rectangle 1818" transform="translate(679 1088)" fill="#fff" stroke="#707070" stroke-width="1">
        <rect width="48" height="32" stroke="none"/>
        <rect x="0.5" y="0.5" width="47" height="31" fill="none"/>
      </g>
      <g id="Group_4055" data-name="Group 4055" transform="translate(671 1070)">
        <path id="Path_2067" data-name="Path 2067" d="M1026.637,121.933A32,32,0,1,0,1058.631,154,32.018,32.018,0,0,0,1026.637,121.933Zm-19.756,38.733V144.544c.075.107.111.156.145.208q2.521,3.823,5.044,7.645a.272.272,0,0,1,.012.355q-2.536,3.855-5.061,7.719C1006.988,160.521,1006.95,160.57,1006.88,160.666Zm16.39.121h-14.509c.054-.092.09-.16.131-.223q2.287-3.493,4.573-6.988a.359.359,0,0,1,.34-.193q4.618.008,9.236,0h.229Zm.009-9.022c-.087,0-.171.014-.254.014q-4.606,0-9.211,0a.343.343,0,0,1-.332-.166q-2.312-3.519-4.634-7.033c-.037-.057-.066-.119-.112-.2h14.543Zm18.915-6.021a9.031,9.031,0,0,1,2.62,9.819,8.384,8.384,0,0,0-2.353-.128,8.188,8.188,0,0,0-2.254.576l-.405-.7q-.735-1.274-1.472-2.547a.277.277,0,0,1-.026-.323q1.912-3.293,3.813-6.592C1042.133,145.82,1042.154,145.8,1042.194,145.744Zm-10.072-1.165a8.923,8.923,0,0,1,8.736.182c-.045.093-.071.156-.1.215q-1.9,3.3-3.8,6.595a.355.355,0,0,1-.349.213q-4.535-.009-9.07,0c-.069,0-.139-.007-.262-.014A8.912,8.912,0,0,1,1032.122,144.578Zm3.5,17.008a9.039,9.039,0,0,1-8.319-8.047c0-.038,0-.078,0-.152h.279q4.488,0,8.977,0a.4.4,0,0,1,.407.237q.853,1.507,1.73,3c.091.155.08.231-.064.345a7.342,7.342,0,0,0-2.755,4.435C1035.847,161.56,1035.781,161.6,1035.624,161.586Zm7.571,7.137a5.859,5.859,0,1,1,5.855-5.83A5.864,5.864,0,0,1,1043.195,168.724Z" transform="translate(-994.631 -121.933)" fill="#ff6700"/>
        <path id="Path_2068" data-name="Path 2068" d="M1397.439,461.529l-1.391-1.4-.84.835,2.3,2.3,4.452-5.052-.9-.8Z" transform="translate(-1349.987 -419.546)" fill="#ff6700"/>
      </g>
    </g>
  </g>
</svg>
