<svg xmlns="http://www.w3.org/2000/svg" width="24" height="24" viewBox="0 0 24 24"><defs><style>.a{fill:none;}.b{fill:#565656;}</style></defs><rect class="a" width="24" height="24"/><path class="b" d="M13.966,9.748a1.584,1.584,0,0,1-1.358-.783L10.5,5.4,8.391,8.965a1.589,1.589,0,0,1-1.362.787,1.481,1.481,0,0,1-.436-.064L2.1,8.376v5.96a1.064,1.064,0,0,0,.794,1.038l7.094,1.811a2.091,2.091,0,0,0,1.017,0l7.1-1.811a1.07,1.07,0,0,0,.794-1.038V8.376L14.4,9.685A1.481,1.481,0,0,1,13.966,9.748Zm6.975-3.757L19.252,2.55a.533.533,0,0,0-.548-.3L10.5,3.32l3.009,5.092a.534.534,0,0,0,.607.244l6.493-1.892A.555.555,0,0,0,20.941,5.992ZM1.744,2.55.054,5.992a.549.549,0,0,0,.331.77L6.879,8.654a.534.534,0,0,0,.607-.244L10.5,3.32,2.289,2.252a.534.534,0,0,0-.545.3Z" transform="translate(1.504 2.252)"/></svg>