<svg xmlns="http://www.w3.org/2000/svg" width="1116" height="63.999" viewBox="0 0 1116 63.999">
  <g id="Group_5714" data-name="Group 5714" transform="translate(-144.5 -1063)">
    <line id="Line_220" data-name="Line 220" x2="1116" transform="translate(144.5 1102)" fill="none" stroke="#ff6700" stroke-width="4"/>
    <g id="Group_5426" data-name="Group 5426">
      <g id="Group_4056" data-name="Group 4056" transform="translate(671 1063)">
        <g id="Group_5425" data-name="Group 5425" transform="translate(-1639.318 -854.49)">
          <rect id="Rectangle_1518" data-name="Rectangle 1518" width="45" height="40.302" rx="4" transform="translate(1651 867.164)" fill="#fff"/>
        </g>
        <path id="Path_2069" data-name="Path 2069" d="M2057.8,101.9a32,32,0,1,0,31.991,32.043A32.013,32.013,0,0,0,2057.8,101.9Zm-17.614,22.433h13.957c.314,0,.314,0,.314.305,0,2.271,0,4.542.006,6.813,0,.245-.069.3-.307.3q-4.569-.012-9.139,0a.383.383,0,0,1-.379-.171q-2.323-3.54-4.657-7.073c-.026-.039-.045-.081-.094-.172Zm-2.139,16.291V124.509c.082.119.131.188.178.259q2.495,3.783,4.992,7.565a.3.3,0,0,1,.017.4q-2.53,3.845-5.048,7.7C2038.148,140.481,2038.109,140.53,2038.044,140.62Zm6.2.15c-1.393-.007-2.786,0-4.178,0a1.274,1.274,0,0,1-.139-.018c.051-.088.086-.155.127-.219q2.287-3.494,4.572-6.989a.36.36,0,0,1,.34-.193q4.618.009,9.235,0h.233v2.53c-.4-.113-.776-.25-1.166-.327a7.334,7.334,0,0,0-7.414,2.522,6.73,6.73,0,0,0-1.362,2.475C2044.452,140.679,2044.412,140.771,2044.241,140.77Zm7.335,7.917a5.854,5.854,0,1,1,5.881-5.642A5.852,5.852,0,0,1,2051.576,148.687Zm21.769-22.984a9.052,9.052,0,0,1,2.625,9.827,7.672,7.672,0,0,0-4.593.443c-.04-.062-.085-.125-.123-.191q-.885-1.53-1.77-3.059a.3.3,0,0,1-.007-.348q1.893-3.263,3.776-6.53C2073.276,125.8,2073.3,125.766,2073.345,125.7Zm-10.446-.952a8.943,8.943,0,0,1,9.116-.03c-.045.091-.071.154-.1.212q-1.907,3.308-3.813,6.617a.338.338,0,0,1-.335.2q-4.534-.008-9.069,0c-.07,0-.14-.007-.264-.013A8.886,8.886,0,0,1,2062.9,124.75Zm-1.458,14.541a9,9,0,0,1-3-5.924c.091-.007.16-.016.229-.016q4.558,0,9.116,0a.34.34,0,0,1,.256.1c.645,1.1,1.278,2.2,1.926,3.322a7.551,7.551,0,0,0-2.974,4.781A8.8,8.8,0,0,1,2061.44,139.291Zm12.9,9.4a5.859,5.859,0,1,1,5.868-5.678A5.843,5.843,0,0,1,2074.343,148.687Z" transform="translate(-2025.787 -101.896)" fill="#ff6700"/>
        <path id="Path_2070" data-name="Path 2070" d="M2228.97,441.483l-1.413-1.423-.821.83,2.317,2.322,4.422-5.025-.9-.8Z" transform="translate(-2204.051 -399.517)" fill="#ff6700"/>
        <path id="Path_2071" data-name="Path 2071" d="M2428.5,441.5l-1.42-1.435-.813.813,2.332,2.333,4.434-5.033-.9-.8Z" transform="translate(-2381.053 -399.511)" fill="#ff6700"/>
      </g>
    </g>
  </g>
</svg>
