<svg xmlns="http://www.w3.org/2000/svg" width="1116" height="64" viewBox="0 0 1116 64">
  <g id="Group_5714" data-name="Group 5714" transform="translate(-144.5 -1070)">
    <line id="Line_220" data-name="Line 220" x2="1116" transform="translate(144.5 1102)" fill="none" stroke="#ff6700" stroke-width="4"/>
    <g id="Group_5719" data-name="Group 5719" transform="translate(2672.5 13804)">
      <circle id="Ellipse_760" data-name="Ellipse 760" cx="32" cy="32" r="32" transform="translate(-2002 -12734)" fill="#ff6700"/>
      <g id="Group_5716" data-name="Group 5716" transform="translate(-1986 -12720.668)">
        <path id="Path_2422" data-name="Path 2422" d="M416.548,477.159a.562.562,0,0,0,.546-.336q2.992-5.186,6.011-10.383c.055-.093.1-.193.164-.336a15.413,15.413,0,0,0-7.275-1.932,13.946,13.946,0,0,0-6.5,1.642v0a14.04,14.04,0,0,0-7.645,11.32c.2,0,.307.021.42.021Z" transform="translate(-401.846 -464.171)" fill="#fff"/>
        <path id="Path_2423" data-name="Path 2423" d="M406.075,476.056q1.166,2,2.319,4.011l.638,1.1a13.131,13.131,0,0,1,3.55-.907,13.4,13.4,0,0,1,3.709.206A14.241,14.241,0,0,0,412.162,465c-.063.084-.092.118-.122.164q-3,5.186-6,10.379A.423.423,0,0,0,406.075,476.056Z" transform="translate(-388.651 -461.518)" fill="#fff"/>
        <path id="Path_2424" data-name="Path 2424" d="M414.953,469.222h-.088a9.2,9.2,0,1,0,.088,0Zm-1.743,13.647-3.629-3.654L410.9,477.9l2.193,2.209,5.7-6.481,1.42,1.26Z" transform="translate(-389.757 -448.005)" fill="#fff"/>
        <path id="Path_2425" data-name="Path 2425" d="M419.7,473.51c.223-.176.244-.3.1-.546q-1.374-2.35-2.726-4.726a.632.632,0,0,0-.638-.374H401.868a2.435,2.435,0,0,0-.008.248,14.237,14.237,0,0,0,13.1,12.677c.248,0,.349-.042.42-.3A11.548,11.548,0,0,1,419.7,473.51Z" transform="translate(-401.801 -452.355)" fill="#fff"/>
      </g>
    </g>
  </g>
</svg>
