<svg xmlns="http://www.w3.org/2000/svg" width="214.673" height="362.978" viewBox="0 0 214.673 362.978"><defs><style>.a{fill:#ccc;}.b{fill:#fff;}</style></defs><g transform="translate(-959.327 -2326.931)"><path class="a" d="M2358.487,20.723a11.959,11.959,0,0,0,16.873,3.931,214.627,214.627,0,0,0,68.459-72.1c57.666-99.143,26.691-224.941-68.515-286.975a11.947,11.947,0,0,0-16.835,3.957l-98.693,169.68a11.721,11.721,0,0,0,0,11.8Z" transform="translate(-1298.857 2663.295)"/><path class="b" d="M6.993,10.866v3.746a1.124,1.124,0,0,1-1.124,1.124H1.124A1.124,1.124,0,0,1,0,14.612V10.866A1.124,1.124,0,0,1,1.124,9.742H5.869a1.124,1.124,0,0,1,1.124,1.124ZM0,18.359V22.1a1.124,1.124,0,0,0,1.124,1.124H5.869A1.124,1.124,0,0,0,6.993,22.1V18.359a1.124,1.124,0,0,0-1.124-1.124H1.124A1.124,1.124,0,0,0,0,18.359ZM5.869,2.25H1.124A1.124,1.124,0,0,0,0,3.374V7.12A1.124,1.124,0,0,0,1.124,8.244H5.869A1.124,1.124,0,0,0,6.993,7.12V3.374A1.124,1.124,0,0,0,5.869,2.25ZM9.615,23.229H22.852A1.124,1.124,0,0,0,23.976,22.1V18.359a1.124,1.124,0,0,0-1.124-1.124H9.615a1.124,1.124,0,0,0-1.124,1.124V22.1A1.124,1.124,0,0,0,9.615,23.229ZM8.491,3.374V7.12A1.124,1.124,0,0,0,9.615,8.244H22.852A1.124,1.124,0,0,0,23.976,7.12V3.374A1.124,1.124,0,0,0,22.852,2.25H9.615A1.124,1.124,0,0,0,8.491,3.374ZM9.615,15.736H22.852a1.124,1.124,0,0,0,1.124-1.124V10.866a1.124,1.124,0,0,0-1.124-1.124H9.615a1.124,1.124,0,0,0-1.124,1.124v3.746A1.124,1.124,0,0,0,9.615,15.736Z" transform="translate(1055.713 2484.242)"/></g></svg>