<svg xmlns="http://www.w3.org/2000/svg" width="300.667" height="59.999" viewBox="0 0 300.667 59.999"><defs><style>.a{fill:#eee;stroke-linecap:round;stroke-linejoin:round;}.b,.c{fill:#aaa;}.b{font-size:14px;font-family:Muli-Medium, Muli;font-weight:500;}.d,.e{stroke:none;}.e{fill:#fff;}</style></defs><g transform="translate(14935 11178.999)"><g class="a" transform="translate(-14935 -11178.999)"><path class="d" d="M 271.3718872070312 59.79939270019531 L 0.4360454678535461 59.79939270019531 L 29.31865501403809 30.12031555175781 L 29.45438575744629 29.98081588745117 L 29.31865501403809 29.84135437011719 L 0.4745634496212006 0.2000082433223724 L 271.4077453613281 0.2000082433223724 L 300.388427734375 29.98083686828613 L 271.3718872070312 59.79939270019531 Z"/><path class="e" d="M 271.2874450683594 59.59939193725586 L 300.109375 29.98081970214844 L 271.3233642578125 0.4000082314014435 L 0.9482396841049194 0.4000082314014435 L 29.46196365356445 29.70185470581055 C 29.61307907104492 29.85712432861328 29.61307907104492 30.10450744628906 29.46196365356445 30.2597770690918 L 0.9097049236297607 59.59939193725586 L 271.2874450683594 59.59939193725586 M 271.4922180175781 59.99939346313477 L 1.52118388996314e-06 59.99939346313477 L 1.52118388996314e-06 59.96066284179688 L 29.1753101348877 29.98081588745117 L 0.0008861365495249629 8.238572263508104e-06 L 271.4922180175781 8.238572263508104e-06 L 300.6675109863281 29.98081588745117 L 271.4931030273438 59.96158599853516 L 271.4922790527344 59.99843215942383 L 271.4922180175781 59.99939346313477 Z"/></g><g transform="translate(-14832 -11165)"><text class="b" transform="translate(40 21)"><tspan x="0" y="0">Ranking</tspan></text><path class="c" d="M16,32A16,16,0,0,1,4.687,4.685,16,16,0,0,1,27.314,27.313,15.9,15.9,0,0,1,16,32ZM6.63,23.894a.184.184,0,0,0-.184.184v.88a.184.184,0,0,0,.184.185H24.549a.184.184,0,0,0,.184-.185v-.88a.184.184,0,0,0-.184-.184H23.81V15.929a.184.184,0,0,0-.184-.184h-2.8a.184.184,0,0,0-.184.184v7.965H19.387V17.733a.191.191,0,0,0-.014-.072.184.184,0,0,0-.17-.112H16.4a.184.184,0,0,0-.184.184v6.162H14.963V12.951a.184.184,0,0,0-.184-.184h-2.8a.184.184,0,0,0-.184.184V23.894H10.539V20.137a.184.184,0,0,0-.184-.184h-2.8a.185.185,0,0,0-.185.184v3.757Zm6.748-13.237a.2.2,0,0,1,.09.022l.863.454a.394.394,0,0,0,.188.048.4.4,0,0,0,.309-.145.4.4,0,0,0,.088-.328l-.076-.444-.088-.52a.189.189,0,0,1,.005-.09.2.2,0,0,1,.05-.082l.7-.681.011-.011a.4.4,0,0,0,.111-.27.414.414,0,0,0-.137-.312.4.4,0,0,0-.208-.1L15.1,8.178l-.042-.007-.744-.108a.2.2,0,0,1-.147-.106l-.431-.876a.4.4,0,0,0-.723,0l-.431.876a.2.2,0,0,1-.147.106l-.966.14a.4.4,0,0,0-.223.689l.7.681a.2.2,0,0,1,.057.173l-.166.963a.4.4,0,0,0,.088.327.4.4,0,0,0,.309.145.4.4,0,0,0,.188-.047l.863-.454A.2.2,0,0,1,13.378,10.657Z"/></g></g></svg>