<svg xmlns="http://www.w3.org/2000/svg" xmlns:xlink="http://www.w3.org/1999/xlink" width="331.884" height="227.166" viewBox="0 0 331.884 227.166"><defs><style>.a{fill:url(#a);}.b{fill:#fff;}.c{filter:url(#b);}</style><linearGradient id="a" x1="0.5" x2="0.5" y2="1" gradientUnits="objectBoundingBox"><stop offset="0" stop-color="#ff5d48"/><stop offset="1" stop-color="#b74600"/></linearGradient><filter id="b" x="0" y="0" width="331.884" height="227.166" filterUnits="userSpaceOnUse"><feOffset dy="2" input="SourceAlpha"/><feGaussianBlur stdDeviation="2" result="c"/><feFlood flood-opacity="0.4"/><feComposite operator="in" in2="c"/><feComposite in="SourceGraphic"/></filter></defs><g transform="translate(-728 -2004.834)"><g class="c" transform="matrix(1, 0, 0, 1, 728, 2004.83)"><path class="a" d="M2055.432-158.291a11.867,11.867,0,0,0-11.865,12.554,213.237,213.237,0,0,0,28.674,95.011c57.665,99.26,182.905,135.574,284.631,84.689a11.789,11.789,0,0,0,4.965-16.471l-98.693-169.878a11.9,11.9,0,0,0-10.291-5.905Z" transform="translate(-2037.55 162.29)"/></g><path class="b" d="M11.988.563A11.988,11.988,0,1,0,23.976,12.55,11.986,11.986,0,0,0,11.988.563Zm3.867,8.121a1.547,1.547,0,1,1-1.547,1.547A1.545,1.545,0,0,1,15.855,8.683Zm-8.507,11.6a2.3,2.3,0,0,1-2.32-2.272c0-.967,1.378-2.92,2.011-3.761a.385.385,0,0,1,.619,0c.633.841,2.011,2.794,2.011,3.761A2.3,2.3,0,0,1,7.347,20.284Zm.773-8.507A1.547,1.547,0,1,1,9.668,10.23,1.545,1.545,0,0,1,8.121,11.777Zm8.227,7.454a5.671,5.671,0,0,0-4.36-2.04.773.773,0,0,1,0-1.547,7.192,7.192,0,0,1,5.544,2.6A.771.771,0,0,1,16.348,19.231Z" transform="translate(882.424 2092.367)"/></g></svg>