<svg xmlns="http://www.w3.org/2000/svg" width="42.171" height="25.205" viewBox="0 0 42.171 25.205"><defs><style>.a{fill:#fff;}</style></defs><g transform="translate(-691.183 -407.304)"><path class="a" d="M720.909,415.567a.338.338,0,0,0,.335-.2l3.813-6.617c.029-.058.055-.121.1-.212a8.943,8.943,0,0,0-9.116.03l-.005-.005a8.888,8.888,0,0,0-4.46,6.991c.124.006.194.013.264.013Q716.376,415.56,720.909,415.567Z"/><path class="a" d="M722.626,416.54l1.77,3.059c.038.066.083.129.123.191a7.67,7.67,0,0,1,4.593-.443,9.05,9.05,0,0,0-2.625-9.827l-.006-.007a.617.617,0,0,0-.086.149q-1.883,3.267-3.776,6.53A.3.3,0,0,0,722.626,416.54Z"/><path class="a" d="M704.78,420.8a5.854,5.854,0,1,0-.062,11.708l-.006,0a5.851,5.851,0,0,0,5.887-5.638c0-.06,0-.121,0-.181A5.854,5.854,0,0,0,704.78,420.8Zm-.855,8.608-2.317-2.322.821-.83,1.413,1.423,3.605-4.1.9.8Z"/><path class="a" d="M696.353,416.146l-4.992-7.565c-.047-.071-.1-.14-.178-.259v16.107c.063-.087.1-.136.139-.183q2.518-3.855,5.048-7.7A.3.3,0,0,0,696.353,416.146Z"/><path class="a" d="M706.407,419.371c.39.077.766.214,1.166.327v-2.53h-.233q-4.617.009-9.235,0a.361.361,0,0,0-.34.193q-2.285,3.5-4.572,6.989c-.041.064-.076.131-.127.219.046.008.093.014.139.018,1.392,0,2.785-.007,4.178,0l-.006,0c.171,0,.211-.091.254-.215a6.732,6.732,0,0,1,1.362-2.475A7.333,7.333,0,0,1,706.407,419.371Z"/><path class="a" d="M697.774,415.393a.384.384,0,0,0,.379.171q4.57-.012,9.14,0c.237,0,.306-.055.306-.3q-.009-3.406-.006-6.813c0-.3,0-.3-.314-.3H693.322l-.3,0c.049.091.068.133.094.172Q695.451,411.852,697.774,415.393Z"/><path class="a" d="M727.507,420.791a5.859,5.859,0,0,0-.024,11.718l0-.009a5.843,5.843,0,0,0,5.872-5.669c0-.056,0-.113,0-.169A5.859,5.859,0,0,0,727.507,420.791Zm-1.038,8.618-2.332-2.333.813-.813,1.42,1.435L730,423.576l.9.8Z"/><path class="a" d="M723.11,420.591c-.494-.857-.981-1.7-1.47-2.537.038.41.067.82.121,1.228h0c-.054-.41-.083-.821-.122-1.232-.15-.259-.3-.522-.453-.781a.339.339,0,0,0-.256-.1h-9.116c-.069,0-.138.009-.229.016a9,9,0,0,0,3,5.924l-.007-.005a8.8,8.8,0,0,0,5.56,2.268A7.554,7.554,0,0,1,723.11,420.591Z"/><path class="a" d="M721.48,415.039c0,1.006.064,2.01.157,3.011l0,0C721.546,417.051,721.481,416.046,721.48,415.039Z"/></g></svg>