<svg xmlns="http://www.w3.org/2000/svg" width="24" height="24" viewBox="0 0 24 24"><defs><style>.a{fill:#fff;}.b{fill:#ff6700;}</style></defs><g transform="translate(0.001 0.001)"><path class="a" d="M-11574,647a11.924,11.924,0,0,1-8.485-3.514A11.921,11.921,0,0,1-11586,635a11.921,11.921,0,0,1,3.515-8.485A11.922,11.922,0,0,1-11574,623a11.922,11.922,0,0,1,8.485,3.515A11.921,11.921,0,0,1-11562,635a11.921,11.921,0,0,1-3.515,8.486A11.924,11.924,0,0,1-11574,647Z" transform="translate(11586 -623)"/><g transform="translate(6075.999 1545.999)"><path class="b" d="M3.5,8H2A2,2,0,0,1,0,6V2A2,2,0,0,1,2,0H6A2,2,0,0,1,8,2V3.5A4.505,4.505,0,0,0,3.5,8Z" transform="translate(-6070 -1540)"/><circle class="b" cx="4" cy="4" r="4" transform="translate(-6066 -1536)"/></g></g></svg>