<svg xmlns="http://www.w3.org/2000/svg" xmlns:xlink="http://www.w3.org/1999/xlink" width="289.882" height="289.674" viewBox="0 0 289.882 289.674"><defs><style>.a{fill:url(#a);}.b{fill:url(#d);}.c{fill:url(#g);}.d,.e{fill:#eee;}.e{opacity:0;}.f,.g{fill:#fff;}.f{font-size:11px;font-family:Muli-Bold, Muli;font-weight:700;}.h{filter:url(#h);}.i{filter:url(#e);}.j{filter:url(#b);}</style><linearGradient id="a" x1="0.5" x2="0.5" y2="1" gradientUnits="objectBoundingBox"><stop offset="0" stop-color="#8ee359"/><stop offset="1" stop-color="#538335"/></linearGradient><filter id="b" x="0" y="0" width="214.023" height="148.354" filterUnits="userSpaceOnUse"><feOffset dy="2" input="SourceAlpha"/><feGaussianBlur stdDeviation="2" result="c"/><feFlood flood-opacity="0.4"/><feComposite operator="in" in2="c"/><feComposite in="SourceGraphic"/></filter><linearGradient id="d" x1="0.5" x2="0.5" y2="1" gradientUnits="objectBoundingBox"><stop offset="0" stop-color="#ff5d48"/><stop offset="1" stop-color="#b74600"/></linearGradient><filter id="e" x="0" y="141.32" width="214.022" height="148.354" filterUnits="userSpaceOnUse"><feOffset dy="2" input="SourceAlpha"/><feGaussianBlur stdDeviation="2" result="f"/><feFlood flood-opacity="0.4"/><feComposite operator="in" in2="f"/><feComposite in="SourceGraphic"/></filter><linearGradient id="g" x1="0.5" x2="0.5" y2="1" gradientUnits="objectBoundingBox"><stop offset="0" stop-color="#ff80bb"/><stop offset="1" stop-color="#8700ba"/></linearGradient><filter id="h" x="142.305" y="23.877" width="147.577" height="242.291" filterUnits="userSpaceOnUse"><feOffset dy="2" input="SourceAlpha"/><feGaussianBlur stdDeviation="2" result="i"/><feFlood flood-opacity="0.4"/><feComposite operator="in" in2="i"/><feComposite in="SourceGraphic"/></filter></defs><g transform="translate(6 4)"><g class="j" transform="matrix(1, 0, 0, 1, -6, -4)"><path class="a" d="M2050.909-236.149a7.509,7.509,0,0,1-7.493-7.955,135.463,135.463,0,0,1,18.109-60.21c36.418-62.9,115.514-85.915,179.758-53.667a7.482,7.482,0,0,1,3.136,10.437L2182.09-239.891a7.509,7.509,0,0,1-6.5,3.742Z" transform="translate(-2037.4 376.5)"/></g><g class="i" transform="matrix(1, 0, 0, 1, -6, -4)"><path class="b" d="M2051.052-158.291a7.509,7.509,0,0,0-7.493,7.955,135.467,135.467,0,0,0,18.109,60.21c36.418,62.9,115.513,85.915,179.758,53.668a7.483,7.483,0,0,0,3.136-10.438l-62.329-107.653a7.508,7.508,0,0,0-6.5-3.742Z" transform="translate(-2037.55 303.61)"/></g><g class="h" transform="matrix(1, 0, 0, 1, -6, -4)"><path class="c" d="M2321.53-109.81a7.533,7.533,0,0,0,10.656,2.494,135.905,135.905,0,0,0,43.236-45.744,136.109,136.109,0,0,0-43.271-182.071,7.526,7.526,0,0,0-10.632,2.511L2259.19-224.968a7.466,7.466,0,0,0,0,7.484Z" transform="translate(-2109.88 364.24)"/></g><path class="d" d="M2050.909-236.149a7.509,7.509,0,0,1-7.493-7.955,135.463,135.463,0,0,1,18.109-60.21c36.418-62.9,115.514-85.915,179.758-53.667a7.482,7.482,0,0,1,3.136,10.437L2182.09-239.891a7.509,7.509,0,0,1-6.5,3.742Z" transform="translate(-2043.403 372.503)"/><path class="d" d="M2051.052-158.291a7.509,7.509,0,0,0-7.493,7.955,135.467,135.467,0,0,0,18.109,60.21c36.418,62.9,115.513,85.915,179.758,53.668a7.483,7.483,0,0,0,3.136-10.438l-62.329-107.653a7.508,7.508,0,0,0-6.5-3.742Z" transform="translate(-2043.547 299.611)"/><path class="e" d="M2321.53-109.81a7.533,7.533,0,0,0,10.656,2.494,135.905,135.905,0,0,0,43.236-45.744,136.109,136.109,0,0,0-43.271-182.071,7.526,7.526,0,0,0-10.632,2.511L2259.19-224.968a7.466,7.466,0,0,0,0,7.484Z" transform="translate(-2115.879 360.241)"/><text class="f" transform="translate(153.836 142.349)"><tspan x="-3.3" y="0">1</tspan></text><text class="f" transform="translate(128.618 154.72)"><tspan x="-3.3" y="0">2</tspan></text><text class="f" transform="translate(129.569 129.978)"><tspan x="-3.3" y="0">3</tspan></text><g transform="translate(182.241 125.142)"><path class="g" d="M4.441,7.722V10.1a.714.714,0,0,1-.714.714H.714A.714.714,0,0,1,0,10.1V7.722a.714.714,0,0,1,.714-.714H3.727a.714.714,0,0,1,.714.714ZM0,12.48v2.379a.714.714,0,0,0,.714.714H3.727a.714.714,0,0,0,.714-.714V12.48a.714.714,0,0,0-.714-.714H.714A.714.714,0,0,0,0,12.48ZM3.727,2.25H.714A.714.714,0,0,0,0,2.964V5.343a.714.714,0,0,0,.714.714H3.727a.714.714,0,0,0,.714-.714V2.964a.714.714,0,0,0-.714-.714ZM6.106,15.573h8.406a.714.714,0,0,0,.714-.714V12.48a.714.714,0,0,0-.714-.714H6.106a.714.714,0,0,0-.714.714v2.379A.714.714,0,0,0,6.106,15.573ZM5.393,2.964V5.343a.714.714,0,0,0,.714.714h8.406a.714.714,0,0,0,.714-.714V2.964a.714.714,0,0,0-.714-.714H6.106A.714.714,0,0,0,5.393,2.964Zm.714,7.851h8.406a.714.714,0,0,0,.714-.714V7.722a.714.714,0,0,0-.714-.714H6.106a.714.714,0,0,0-.714.714V10.1A.714.714,0,0,0,6.106,10.815Z" transform="translate(20.936 -2.25)"/></g><g transform="translate(84.697 194.612)"><path class="g" d="M7.613.563a7.613,7.613,0,1,0,7.613,7.613A7.612,7.612,0,0,0,7.613.563ZM10.069,5.72a.982.982,0,1,1-.982.982A.981.981,0,0,1,10.069,5.72Zm-5.4,7.368a1.458,1.458,0,0,1-1.474-1.443A6.3,6.3,0,0,1,4.47,9.256a.244.244,0,0,1,.393,0A6.3,6.3,0,0,1,6.14,11.645,1.458,1.458,0,0,1,4.666,13.087Zm.491-5.4A.982.982,0,1,1,6.14,6.7.981.981,0,0,1,5.157,7.685Zm5.225,4.734a3.6,3.6,0,0,0-2.769-1.3.491.491,0,0,1,0-.982,4.567,4.567,0,0,1,3.521,1.652A.489.489,0,0,1,10.382,12.418Z" transform="translate(9.041 -0.563)"/></g><g transform="translate(84.221 53.292)"><path class="g" d="M0,8.176A7.613,7.613,0,1,0,7.613.563,7.612,7.612,0,0,0,0,8.176ZM6.14,6.7a.982.982,0,1,1-.982-.982A.981.981,0,0,1,6.14,6.7Zm4.866.507a1.594,1.594,0,0,0-1.873,0l-.292.261a.368.368,0,0,1-.608-.332,1.846,1.846,0,0,1,1.839-1.292,1.846,1.846,0,0,1,1.839,1.292.368.368,0,0,1-.608.332Zm-6.161,3.11a3.607,3.607,0,0,0,5.538,0,.492.492,0,0,1,.755.629,4.589,4.589,0,0,1-7.048,0,.491.491,0,0,1,.755-.626Z" transform="translate(9.516 -0.563)"/></g></g></svg>