<svg xmlns="http://www.w3.org/2000/svg" width="48" height="48" viewBox="0 0 48 48">
  <g id="Group_6239" data-name="Group 6239" transform="translate(3638 19001)">
    <g id="Group_6238" data-name="Group 6238" transform="translate(-3689.168 -18993)">
      <path id="Subtraction_36" data-name="Subtraction 36" d="M12.986,32c-.205,0-.41,0-.61-.012a6.013,6.013,0,0,0,1.674-.344,6.57,6.57,0,0,0,1.507-.779,7.115,7.115,0,0,0,1.272-1.131,7.194,7.194,0,0,0,.97-1.4,6.79,6.79,0,0,0,.564-1.443,6.28,6.28,0,0,0,.208-1.539,5.914,5.914,0,0,0-.2-1.572,6.065,6.065,0,0,0-.657-1.543.09.09,0,0,0-.033-.068.084.084,0,0,1-.032-.049,9.318,9.318,0,0,1-.261,3.527,5.586,5.586,0,0,1-.574,1.32,4.386,4.386,0,0,1-.829,1.01c.724-1.744.074-3.723-.6-5.074a26.4,26.4,0,0,0-1.6-2.559h0v0c-.408-.6-.83-1.223-1.2-1.844a10.532,10.532,0,0,1-1.039-2.43,6.093,6.093,0,0,1-.2-1.281,4.8,4.8,0,0,1,.113-1.3,8.149,8.149,0,0,0-1.107,1.006,8.772,8.772,0,0,0-.914,1.188,9.069,9.069,0,0,0-.7,1.328,8.887,8.887,0,0,0-.471,1.42,8.219,8.219,0,0,0-.214,1.479A8.92,8.92,0,0,0,8.1,21.412a9.22,9.22,0,0,0,.3,1.482A9.052,9.052,0,0,0,8.936,24.3a4.574,4.574,0,0,1-1.247-1.4,4.271,4.271,0,0,1-.38-.869,3.853,3.853,0,0,1-.168-.932A7.328,7.328,0,0,0,5.885,23.25a6.7,6.7,0,0,0-.325,1.207A6.055,6.055,0,0,0,5.478,25.7a5.276,5.276,0,0,0,.359,1.887A6.5,6.5,0,0,0,6.8,29.268a7.551,7.551,0,0,0,1.4,1.365,7.4,7.4,0,0,0,1.668.945,6.615,6.615,0,0,0,.653.217,12.893,12.893,0,0,1-1.534-.367A11.328,11.328,0,0,1,6.12,30.1a11.724,11.724,0,0,1-1.307-.988c-.67-.766-1.443-1.66-2.128-2.588A15.73,15.73,0,0,1,.956,23.635,12.46,12.46,0,0,1,.224,16.49a15.073,15.073,0,0,1,1.13-3.48A15.777,15.777,0,0,1,3.283,9.881a5.973,5.973,0,0,0,.034,1.256,6.4,6.4,0,0,0,.29,1.232,6.61,6.61,0,0,0,.527,1.154,6.289,6.289,0,0,0,.745,1.031,9.683,9.683,0,0,1-.185-2.436A10.851,10.851,0,0,1,5.1,9.7,11.843,11.843,0,0,1,7.407,5.342,14.862,14.862,0,0,1,9.142,3.6a17.023,17.023,0,0,1,1.972-1.449A21,21,0,0,1,13.261.957C13.967.617,14.728.295,15.521,0a4.857,4.857,0,0,0-.906,1.355,6.022,6.022,0,0,0-.457,1.582A7.564,7.564,0,0,0,14.1,4.619a8.491,8.491,0,0,0,.291,1.658,11.717,11.717,0,0,0,.449,1.291c.164.4.353.8.577,1.244.418.813.9,1.621,1.37,2.4v0c.2.328.4.666.594,1a23.988,23.988,0,0,1,1.53,2.971,9.059,9.059,0,0,1,.731,3.172c.1-.186.2-.373.3-.559a17.346,17.346,0,0,0,1.365-2.98,9.134,9.134,0,0,0,.407-1.934,6.263,6.263,0,0,0,.013-.975,5.148,5.148,0,0,0-.155-.963A10.306,10.306,0,0,1,22.994,13.2a10.536,10.536,0,0,1,.773,2.555c.08.451.14.926.179,1.412.036.455.054.934.054,1.426a26.547,26.547,0,0,1-.166,2.836A14.014,14.014,0,0,1,21.9,27.371a9.967,9.967,0,0,1-2.519,2.646,11.705,11.705,0,0,1-1.568.969,12.909,12.909,0,0,1-1.7.727A18.111,18.111,0,0,1,12.986,32Z" transform="translate(63.168)" fill="#ff6700"/>
    </g>
    <rect id="Rectangle_1799" data-name="Rectangle 1799" width="48" height="48" transform="translate(-3638 -19001)" fill="none"/>
  </g>
</svg>
