<svg xmlns="http://www.w3.org/2000/svg" xmlns:xlink="http://www.w3.org/1999/xlink" width="121" height="85" viewBox="0 0 121 85">
  <defs>
    <clipPath id="clip-iPhone_12_Pro_Max_1">
      <rect width="121" height="85"/>
    </clipPath>
  </defs>
  <g id="iPhone_12_Pro_Max_1" data-name="iPhone 12 Pro Max – 1" clip-path="url(#clip-iPhone_12_Pro_Max_1)">
    <rect width="121" height="85" fill="#fff"/>
    <path id="Icon_awesome-piggy-bank" data-name="Icon awesome-piggy-bank" d="M39.375,15.75H37.3a11.285,11.285,0,0,0-2.63-3.691L36,6.75H33.75a6.707,6.707,0,0,0-5.133,2.412A11.151,11.151,0,0,0,27,9H18A11.261,11.261,0,0,0,6.975,18H3.938a1.689,1.689,0,0,1-1.652-2.025,1.732,1.732,0,0,1,1.723-1.35h.07A.423.423,0,0,0,4.5,14.2V12.8a.423.423,0,0,0-.422-.422A4.028,4.028,0,0,0,.035,15.792a3.94,3.94,0,0,0,3.9,4.458H6.75a11.2,11.2,0,0,0,4.5,8.951v5.674A1.128,1.128,0,0,0,12.375,36h4.5A1.128,1.128,0,0,0,18,34.875V31.5h9v3.375A1.128,1.128,0,0,0,28.125,36h4.5a1.128,1.128,0,0,0,1.125-1.125V29.2a11.251,11.251,0,0,0,2.2-2.2h3.424A1.128,1.128,0,0,0,40.5,25.875v-9A1.128,1.128,0,0,0,39.375,15.75Zm-9,4.5A1.125,1.125,0,1,1,31.5,19.125,1.128,1.128,0,0,1,30.375,20.25ZM18,6.75h9c.38,0,.752.028,1.118.056,0-.021.007-.035.007-.056a6.75,6.75,0,0,0-13.5,0c0,.148.035.288.042.436A13.366,13.366,0,0,1,18,6.75Z" transform="translate(40.249 24.5)" fill="#ee843a"/>
  </g>
</svg>
