<svg xmlns="http://www.w3.org/2000/svg" width="24" height="24" viewBox="0 0 24 24">
  <g id="Group_6026" data-name="Group 6026" transform="translate(0.416)">
    <rect id="Rectangle_2001" data-name="Rectangle 2001" width="24" height="24" transform="translate(-0.416)" fill="#E6641F" />
    <g id="Group_5626" data-name="Group 5626" transform="translate(1.819 3.102)">
      <g id="Group_5623" data-name="Group 5623" transform="translate(0 0)">
        <path id="Path_1864" data-name="Path 1864" d="M5.788,117.828a12.406,12.406,0,0,0,1.613-.1v-5.612a12.416,12.416,0,0,0-1.613-.1c-3.2,0-5.787,1.175-5.787,2.625v.569C0,116.653,2.592,117.828,5.788,117.828Z" transform="translate(-0.001 -107.563)" fill="#fef8f4"/>
        <path id="Path_1865" data-name="Path 1865" d="M5.788,216.906a12.428,12.428,0,0,0,1.613-.1v-1.645a12.412,12.412,0,0,1-1.613.1c-2.79,0-5.118-.9-5.665-2.087a1.28,1.28,0,0,0-.122.538v.569C0,215.73,2.592,216.906,5.788,216.906Z" transform="translate(-0.001 -203.711)" fill="#fef8f4"/>
        <path id="Path_1866" data-name="Path 1866" d="M7.4,274.369v-.128a12.406,12.406,0,0,1-1.613.1c-2.79,0-5.118-.9-5.665-2.087A1.28,1.28,0,0,0,0,272.8v.569c0,1.45,2.591,2.625,5.787,2.625a12.293,12.293,0,0,0,1.829-.134,2.071,2.071,0,0,1-.216-.917Z" transform="translate(0 -259.865)" fill="#fef8f4"/>
        <path id="Path_1867" data-name="Path 1867" d="M174.026,22.379c-3.2,0-5.787,1.175-5.787,2.625v.569c0,1.45,2.591,2.625,5.787,2.625s5.787-1.175,5.787-2.625V25C179.813,23.554,177.222,22.379,174.026,22.379Z" transform="translate(-159.895 -22.379)" fill="#fef8f4"/>
        <path id="Path_1868" data-name="Path 1868" d="M174.026,125.631c-2.79,0-5.118-.9-5.665-2.087a1.28,1.28,0,0,0-.122.538v.569c0,1.45,2.591,2.625,5.787,2.625s5.787-1.175,5.787-2.625v-.569a1.28,1.28,0,0,0-.122-.538C179.145,124.736,176.816,125.631,174.026,125.631Z" transform="translate(-159.895 -118.526)" fill="#fef8f4"/>
        <path id="Path_1869" data-name="Path 1869" d="M174.026,184.715c-2.79,0-5.118-.9-5.665-2.087a1.28,1.28,0,0,0-.122.538v.569c0,1.45,2.591,2.625,5.787,2.625s5.787-1.175,5.787-2.625v-.569a1.28,1.28,0,0,0-.122-.538C179.145,183.82,176.816,184.715,174.026,184.715Z" transform="translate(-159.895 -174.68)" fill="#fef8f4"/>
        <path id="Path_1870" data-name="Path 1870" d="M174.026,246.988c-2.79,0-5.118-.9-5.665-2.087a1.28,1.28,0,0,0-.122.537v.569c0,1.45,2.591,2.625,5.787,2.625s5.787-1.175,5.787-2.625v-.569a1.279,1.279,0,0,0-.122-.537C179.145,246.093,176.816,246.988,174.026,246.988Z" transform="translate(-159.895 -233.864)" fill="#fef8f4"/>
        <path id="Path_1871" data-name="Path 1871" d="M174.026,306.071c-2.79,0-5.118-.9-5.665-2.087a1.28,1.28,0,0,0-.122.538v.569c0,1.45,2.591,2.625,5.787,2.625s5.787-1.175,5.787-2.625v-.569a1.279,1.279,0,0,0-.122-.538C179.145,305.176,176.816,306.071,174.026,306.071Z" transform="translate(-159.895 -290.017)" fill="#fef8f4"/>
      </g>
    </g>
  </g>
</svg>
