<svg xmlns="http://www.w3.org/2000/svg" width="300.667" height="59.999" viewBox="0 0 300.667 59.999"><defs><style>.a{fill:#6eb144;stroke-linecap:round;stroke-linejoin:round;}.b,.c{fill:#fff;}.b{font-size:14px;font-family:Muli-Medium, Muli;font-weight:500;}.d,.e{stroke:none;}.e{fill:#fff;}</style></defs><g transform="translate(14935 10336.802)"><g class="a" transform="translate(-14935 -10336.802)"><path class="d" d="M 271.3718872070312 59.79939270019531 L 0.4360454678535461 59.79939270019531 L 29.31865501403809 30.12031555175781 L 29.45438575744629 29.98081588745117 L 29.31865501403809 29.84135437011719 L 0.4745634496212006 0.2000082433223724 L 271.4077453613281 0.2000082433223724 L 300.388427734375 29.98083686828613 L 271.3718872070312 59.79939270019531 Z"/><path class="e" d="M 271.2874450683594 59.59939193725586 L 300.109375 29.98081970214844 L 271.3233642578125 0.4000082314014435 L 0.9482396841049194 0.4000082314014435 L 29.46196365356445 29.70185470581055 C 29.61307907104492 29.85712432861328 29.61307907104492 30.10450744628906 29.46196365356445 30.2597770690918 L 0.9097049236297607 59.59939193725586 L 271.2874450683594 59.59939193725586 M 271.4922180175781 59.99939346313477 L 1.52118388996314e-06 59.99939346313477 L 1.52118388996314e-06 59.96066284179688 L 29.1753101348877 29.98081588745117 L 0.0008861365495249629 8.238572263508104e-06 L 271.4922180175781 8.238572263508104e-06 L 300.6675109863281 29.98081588745117 L 271.4931030273438 59.96158599853516 L 271.4922790527344 59.99843215942383 L 271.4922180175781 59.99939346313477 Z"/></g><g transform="translate(-14855 -10322)"><text class="b" transform="translate(40 21)"><tspan x="0" y="0">Act Experiment</tspan></text><path class="c" d="M16,32A15.995,15.995,0,0,1,4.688,4.686,16,16,0,1,1,16,32Zm-1.867-9.765v1.3A2.461,2.461,0,0,1,11.686,26h11.2a2.461,2.461,0,0,0,2.447-2.469v-.712a.584.584,0,0,0-.584-.584ZM7.953,6A2.46,2.46,0,0,1,10.4,8.469V23.531a1.286,1.286,0,1,0,2.572,0V21.647a.585.585,0,0,1,.58-.587H21.6V8.469A2.461,2.461,0,0,0,19.154,6Zm0,1.174a1.3,1.3,0,0,0,0,2.594H9.238v-1.3A1.293,1.293,0,0,0,7.951,7.172Zm9.918,12.552a1.841,1.841,0,1,1,1.824-1.841A1.837,1.837,0,0,1,17.869,19.724Zm0-2.511a.669.669,0,1,0,.666.667A.665.665,0,0,0,17.865,17.213Zm-3.732,1.254H12.889a.586.586,0,0,1,0-1.172h1.244a.586.586,0,0,1,0,1.172ZM19.111,14.7H12.889a.586.586,0,0,1,0-1.172h6.223a.586.586,0,0,1,0,1.172Zm0-2.511H12.889a.586.586,0,0,1,0-1.172h6.223a.586.586,0,0,1,0,1.172Zm0-2.511H12.889a.586.586,0,0,1,0-1.172h6.223a.586.586,0,0,1,0,1.172Z"/></g></g></svg>