<svg xmlns="http://www.w3.org/2000/svg" width="1116.011" height="60" viewBox="0 0 1116.011 60"><defs><style>.a{fill:#6eb144;stroke-linecap:round;stroke-linejoin:round;}.b,.c{fill:#fff;}.b{font-size:13px;font-family:Muli-Medium, Muli;font-weight:500;}.d,.e{stroke:none;}.e{fill:rgba(112,112,112,0.4);}</style></defs><g transform="translate(-144 -1606)"><g class="a" transform="translate(144 1606)"><path class="d" d="M30,60A30,30,0,0,1,30,0H1086.016l30,30-30,30h0V60Z"/><path class="e" d="M 1085.841674804688 59.59941482543945 L 1115.445190429688 29.99527549743652 L 1085.849853515625 0.3999862670898438 L 29.99971771240234 0.3999862670898438 C 26.00371742248535 0.3999862670898438 22.12728881835938 1.182557702064514 18.47843170166016 2.725986242294312 C 14.9537181854248 4.216843605041504 11.78814601898193 6.351129055023193 9.069717407226562 9.069700241088867 C 6.351146221160889 11.78812885284424 4.216860771179199 14.95370101928711 2.726003646850586 18.47841453552246 C 1.182574987411499 22.12727165222168 0.4000035524368286 26.00370025634766 0.4000035524368286 29.99970054626465 C 0.4000035524368286 33.99570083618164 1.182574987411499 37.87212753295898 2.726003646850586 41.5209846496582 C 4.216860771179199 45.04570007324219 6.351146221160889 48.21127319335938 9.069717407226562 50.9296989440918 C 11.78814601898193 53.64827346801758 14.9537181854248 55.78255844116211 18.47843170166016 57.27341461181641 C 22.12728881835938 58.81684494018555 26.00371742248535 59.59941482543945 29.99971771240234 59.59941482543945 L 1085.841674804688 59.59941482543945 M 1086.014770507812 59.99941635131836 L 29.99971771240234 59.99941635131836 C 13.43157482147217 59.99941635131836 3.557477612048388e-06 46.56784439086914 3.557477612048388e-06 29.99970054626465 C 3.557477612048388e-06 13.43155765533447 13.43157482147217 -1.373944996885257e-05 29.99971771240234 -1.373944996885257e-05 L 1086.014770507812 -1.373944996885257e-05 L 1086.014770507812 0.0008434033952653408 L 1086.015625 -1.373944996885257e-05 L 1116.010864257812 29.99527168273926 L 1086.015625 59.99127197265625 L 1086.014770507812 59.99041366577148 L 1086.014770507812 59.99941635131836 Z"/></g><g transform="translate(650 1622)"><text class="b" transform="translate(39.968 20.001)"><tspan x="0" y="0">Completed</tspan></text><path class="c" d="M15.994,32A16,16,0,0,1,4.686,4.686,16,16,0,1,1,22.22,30.742,15.881,15.881,0,0,1,15.994,32Zm-1.867-9.765v1.3A2.46,2.46,0,0,1,11.681,26h11.2a2.46,2.46,0,0,0,2.446-2.469v-.712a.584.584,0,0,0-.584-.584ZM7.95,6a2.46,2.46,0,0,1,2.444,2.471V23.531a1.286,1.286,0,1,0,2.571,0V21.647a.585.585,0,0,1,.58-.587h8.046V8.469A2.46,2.46,0,0,0,19.147,6Zm0,1.174a1.3,1.3,0,0,0,0,2.594H9.235v-1.3A1.293,1.293,0,0,0,7.948,7.172Zm9.914,12.552a1.841,1.841,0,1,1,1.824-1.841A1.837,1.837,0,0,1,17.863,19.724Zm0-2.511a.669.669,0,1,0,.666.667A.665.665,0,0,0,17.859,17.213Zm-3.731,1.254H12.884a.586.586,0,0,1,0-1.172h1.244a.586.586,0,0,1,0,1.172ZM19.1,14.7h-6.22a.586.586,0,0,1,0-1.172H19.1a.586.586,0,0,1,0,1.172Zm0-2.511h-6.22a.586.586,0,0,1,0-1.172H19.1a.586.586,0,0,1,0,1.172Zm0-2.511h-6.22a.586.586,0,0,1,0-1.172H19.1a.586.586,0,0,1,0,1.172Z"/></g></g></svg>