<svg xmlns="http://www.w3.org/2000/svg" width="300.667" height="59.999" viewBox="0 0 300.667 59.999"><defs><style>.a{fill:#fe944c;stroke-linecap:round;stroke-linejoin:round;}.b,.c{fill:#fff;}.b{font-size:14px;font-family:Muli-Medium, Muli;font-weight:500;}.d,.e{stroke:none;}.e{fill:#fff;}</style></defs><g transform="translate(15479 10336.802)"><g class="a" transform="translate(-15479 -10336.802)"><path class="d" d="M 271.3718872070312 59.79939270019531 L 0.4360454678535461 59.79939270019531 L 29.31865501403809 30.12031555175781 L 29.45438575744629 29.98081588745117 L 29.31865501403809 29.84135437011719 L 0.4745634496212006 0.2000082433223724 L 271.4077453613281 0.2000082433223724 L 300.388427734375 29.98083686828613 L 271.3718872070312 59.79939270019531 Z"/><path class="e" d="M 271.2874450683594 59.59939193725586 L 300.109375 29.98081970214844 L 271.3233642578125 0.4000082314014435 L 0.9482396841049194 0.4000082314014435 L 29.46196365356445 29.70185470581055 C 29.61307907104492 29.85712432861328 29.61307907104492 30.10450744628906 29.46196365356445 30.2597770690918 L 0.9097049236297607 59.59939193725586 L 271.2874450683594 59.59939193725586 M 271.4922180175781 59.99939346313477 L 1.52118388996314e-06 59.99939346313477 L 1.52118388996314e-06 59.96066284179688 L 29.1753101348877 29.98081588745117 L 0.0008861365495249629 8.238572263508104e-06 L 271.4922180175781 8.238572263508104e-06 L 300.6675109863281 29.98081588745117 L 271.4931030273438 59.96158599853516 L 271.4922790527344 59.99843215942383 L 271.4922180175781 59.99939346313477 Z"/></g><g transform="translate(-15406 -10324.001)"><text class="b" transform="translate(40.002 21.001)"><tspan x="0" y="0">Define Evaluation</tspan></text><path class="c" d="M16,32A16,16,0,0,1,9.773,1.258,16,16,0,0,1,22.23,30.744,15.925,15.925,0,0,1,16,32ZM9.045,8.14h0A3.176,3.176,0,0,0,8,10.5v13.04a3.074,3.074,0,0,0,3.014,3.124h9.971A3.074,3.074,0,0,0,24,23.542V10.5A3.176,3.176,0,0,0,22.957,8.14v.611a3.076,3.076,0,0,1-3.016,3.126H12.061A3.076,3.076,0,0,1,9.045,8.751V8.14Zm3.016-2.8a1.843,1.843,0,0,0-1.807,1.873V8.751a1.844,1.844,0,0,0,1.807,1.875h7.881A1.845,1.845,0,0,0,21.75,8.751V7.208a1.844,1.844,0,0,0-1.809-1.873Zm.725,16.952a.6.6,0,0,1-.49-.26l-.314-.456-.312.456a.6.6,0,0,1-.49.26.585.585,0,0,1-.352-.115.642.642,0,0,1-.141-.872l.555-.8-.555-.8a.64.64,0,0,1,.141-.872.587.587,0,0,1,.35-.116.6.6,0,0,1,.492.262l.313.455.314-.455a.6.6,0,0,1,.49-.262.587.587,0,0,1,.35.116.64.64,0,0,1,.143.872l-.555.8.555.8a.644.644,0,0,1-.143.872A.576.576,0,0,1,12.785,22.287Zm8.039-1.114H17.289a.624.624,0,0,1,0-1.248h3.535a.624.624,0,0,1,0,1.248Zm-9-3.885c-.02,0-.039,0-.059,0H11.75a.6.6,0,0,1-.469-.34l-.643-1.332a.631.631,0,0,1,.27-.837.57.57,0,0,1,.27-.068.609.609,0,0,1,.539.347l.23.478,1.018-1.264a.6.6,0,0,1,.465-.225.586.586,0,0,1,.385.146.644.644,0,0,1,.076.881l-1.607,2A.593.593,0,0,1,11.82,17.288Zm9-1H17.289a.624.624,0,0,1,0-1.248h3.535a.624.624,0,0,1,0,1.248Z"/></g></g></svg>