<svg xmlns="http://www.w3.org/2000/svg" width="301.071" height="59.999" viewBox="0 0 301.071 59.999"><defs><style>.a{fill:#ffb27f;stroke-linecap:round;stroke-linejoin:round;}.b,.c{fill:#fff;}.c{font-size:14px;font-family:Muli-Medium, Muli;font-weight:500;}.d,.e{stroke:none;}.e{fill:#fff;}</style></defs><g transform="translate(15750 10336.803)"><g class="a" transform="translate(-15750 -10336.803)"><path class="d" d="M 271.292236328125 59.79939270019531 L 29.99970054626465 59.79939270019531 C 25.97673988342285 59.79939270019531 22.0742015838623 59.01150894165039 18.40047073364258 57.45762252807617 C 14.85200881958008 55.95673751831055 11.6650857925415 53.80801010131836 8.928238868713379 51.07116317749023 C 6.19139289855957 48.33431625366211 4.042662143707275 45.14739227294922 2.541777610778809 41.59893035888672 C 0.9878931045532227 37.92520141601562 0.2000084668397903 34.02266311645508 0.2000084668397903 29.99970054626465 C 0.2000084668397903 25.97673988342285 0.9878931045532227 22.07419967651367 2.541777610778809 18.40046882629395 C 4.042662143707275 14.85200786590576 6.19139289855957 11.66508483886719 8.928238868713379 8.928238868713379 C 11.6650857925415 6.19139289855957 14.85200881958008 4.042662143707275 18.40047073364258 2.541777372360229 C 22.0742015838623 0.9878928661346436 25.97673988342285 0.2000082433223724 29.99970054626465 0.2000082433223724 L 271.292236328125 0.2000082433223724 L 271.292236328125 0.4828543961048126 L 271.4929504394531 0.2826720774173737 L 300.787841796875 29.57758522033691 L 271.4931335449219 58.87235260009766 L 271.2931213378906 58.67235565185547 L 271.292236328125 59.15431594848633 L 271.292236328125 59.79939270019531 Z"/><path class="e" d="M 271.0922241210938 59.59939193725586 L 271.0922241210938 59.15431594848633 C 271.0922241210938 59.03765869140625 271.1431579589844 58.92950057983398 271.2276000976562 58.85503005981445 L 300.5050048828125 29.57758522033691 L 271.3274230957031 0.4000082314014435 L 29.99970054626465 0.4000082314014435 C 26.003662109375 0.4000082314014435 22.12731552124023 1.182585120201111 18.4783935546875 2.725969791412354 C 14.95373916625977 4.216777324676514 11.78820037841797 6.351123809814453 9.069662094116211 9.069662094116211 C 6.351123809814453 11.78820037841797 4.216777801513672 14.95373916625977 2.725970029830933 18.4783935546875 C 1.18258535861969 22.12731552124023 0.4000084698200226 26.003662109375 0.4000084698200226 29.99970054626465 C 0.4000084698200226 33.9957389831543 1.18258535861969 37.87208557128906 2.725970029830933 41.5210075378418 C 4.216777801513672 45.04566192626953 6.351123809814453 48.21120071411133 9.069662094116211 50.92974090576172 C 11.78820037841797 53.64827728271484 14.95373916625977 55.78262329101562 18.4783935546875 57.27342987060547 C 22.12731552124023 58.81681442260742 26.003662109375 59.59939193725586 29.99970054626465 59.59939193725586 L 271.0922241210938 59.59939193725586 M 271.4922485351562 59.99939346313477 L 29.99970054626465 59.99939346313477 C 13.43158531188965 59.99939346313477 8.460411663691048e-06 46.56781768798828 8.460411663691048e-06 29.99970054626465 C 8.460411663691048e-06 13.43158531188965 13.43158531188965 8.238572263508104e-06 29.99970054626465 8.238572263508104e-06 L 271.4922485351562 8.238572263508104e-06 L 271.4922485351562 0.0008928539464250207 L 271.4931335449219 8.238572263508104e-06 L 301.0707092285156 29.57758522033691 L 271.4931335449219 59.15520095825195 L 271.4922485351562 59.15431594848633 L 271.4922485351562 59.99939346313477 Z"/></g><g transform="translate(-15656 -10324)"><path class="b" d="M16,32A16,16,0,0,1,9.772,1.257,16,16,0,0,1,22.228,30.743,15.9,15.9,0,0,1,16,32Zm4.211-17.282h0l-3.843,1.913V26l.036-.017,8.835-4.505A1.379,1.379,0,0,0,26,20.238V11.89c0-.012,0-.023,0-.035v-.017l-4.616,2.3v2.589a.586.586,0,1,1-1.172,0V14.718ZM6,11.8c0,.031,0,.057,0,.082v8.369a1.383,1.383,0,0,0,.738,1.228L15.15,25.97l0,0,.025.013.017.008v-9.37Zm4.343-3.074L6.738,10.652a1.355,1.355,0,0,0-.175.11L15.789,15.6l3.863-1.923ZM15.791,6a1.376,1.376,0,0,0-.637.157L11.6,8.057l9.35,4.979,4.513-2.246a1.4,1.4,0,0,0-.221-.14l-8.831-4.5,0,0A1.379,1.379,0,0,0,15.791,6Z"/><text class="c" transform="translate(40 21)"><tspan x="0" y="0">Description</tspan></text></g></g></svg>