<svg xmlns="http://www.w3.org/2000/svg" width="529.962" height="60" viewBox="0 0 529.962 60"><defs><style>.a{fill:#ff6700;stroke-linecap:round;stroke-linejoin:round;}.b,.c{fill:#fff;}.b{font-size:14px;font-family:Muli-SemiBold, Muli;font-weight:600;}.d,.e{stroke:none;}.e{fill:#fff;}</style></defs><g transform="translate(-953 -9126)"><g class="a" transform="translate(367 9126)"><path class="d" d="M 1085.500366210938 59.50028228759766 L 587.02978515625 59.50028228759766 L 616.2352905273438 30.29475021362305 L 616.5888671875 29.94121742248535 L 616.2352905273438 29.58768463134766 L 587.1485595703125 0.5000840425491333 L 1085.500366210938 0.5000840425491333 L 1085.500366210938 1.22621738910675 L 1086.021484375 0.7066171765327454 L 1115.255249023438 29.94121170043945 L 1086.02197265625 59.17446899414062 L 1085.500366210938 58.65275192260742 L 1085.500366210938 59.50028228759766 Z"/><path class="e" d="M 1085.489013671875 59.00028228759766 L 1114.548095703125 29.9411735534668 L 1085.60791015625 1.000084042549133 L 588.355712890625 1.000084042549133 L 616.5888671875 29.23414993286133 C 616.9793701171875 29.6246166229248 616.9793701171875 30.2578182220459 616.5888671875 30.64834976196289 L 588.2369995117188 59.00028228759766 L 1085.489013671875 59.00028228759766 M 1086.000366210938 60.00028228759766 L 586 60.00028228759766 L 585.9999389648438 59.82308578491211 L 615.8817749023438 29.94121742248535 L 586 0.05855068191885948 L 585.9999389648438 8.401387458434328e-05 L 1086.000366210938 8.401387458434328e-05 L 1086.000366210938 0.02175068110227585 L 1086.022094726562 8.401387458434328e-05 L 1115.962280273438 29.94121742248535 L 1086.02197265625 59.88154983520508 L 1086.000366210938 59.85988235473633 L 1086.000366210938 59.99928283691406 L 1086.000366210938 60.00028228759766 Z"/></g><g transform="translate(1163 9140)"><text class="b" transform="translate(40.002 21.001)"><tspan x="0" y="0">Evaluation</tspan></text><path class="c" d="M16,32A15.995,15.995,0,0,1,4.688,4.686,16,16,0,1,1,16,32Zm-1.867-9.765v1.3A2.461,2.461,0,0,1,11.686,26h11.2a2.461,2.461,0,0,0,2.447-2.469v-.712a.584.584,0,0,0-.584-.584ZM7.953,6A2.46,2.46,0,0,1,10.4,8.469V23.531a1.286,1.286,0,1,0,2.572,0V21.647a.585.585,0,0,1,.58-.587H21.6V8.469A2.461,2.461,0,0,0,19.154,6Zm0,1.174a1.3,1.3,0,0,0,0,2.594H9.238v-1.3A1.293,1.293,0,0,0,7.951,7.172Zm9.918,12.552a1.841,1.841,0,1,1,1.824-1.841A1.837,1.837,0,0,1,17.869,19.724Zm0-2.511a.669.669,0,1,0,.666.667A.665.665,0,0,0,17.865,17.213Zm-3.732,1.254H12.889a.586.586,0,0,1,0-1.172h1.244a.586.586,0,0,1,0,1.172ZM19.111,14.7H12.889a.586.586,0,0,1,0-1.172h6.223a.586.586,0,0,1,0,1.172Zm0-2.511H12.889a.586.586,0,0,1,0-1.172h6.223a.586.586,0,0,1,0,1.172Zm0-2.511H12.889a.586.586,0,0,1,0-1.172h6.223a.586.586,0,0,1,0,1.172Z" transform="translate(0 0.001)"/></g></g></svg>