<svg xmlns="http://www.w3.org/2000/svg" width="529.961" height="60.001" viewBox="0 0 529.961 60.001"><defs><style>.a{fill:#eee;stroke-linecap:round;stroke-linejoin:round;}.b,.c{fill:#888;}.b{font-size:14px;font-family:Muli-SemiBold, Muli;font-weight:600;}.d,.e{stroke:none;}.e{fill:#fff;}</style></defs><g transform="translate(11560.999 -19299.999)"><g class="a" transform="translate(367 9126)"><path class="d" d="M -11428.5 10233.5 L -11926.9677734375 10233.5 L -11897.765625 10204.294921875 L -11897.412109375 10203.94140625 L -11897.765625 10203.587890625 L -11926.8515625 10174.4990234375 L -11428.5 10174.4990234375 L -11428.5 10175.1923828125 L -11427.9853515625 10174.69921875 L -11398.7451171875 10203.94140625 L -11428.009765625 10233.2060546875 L -11428.5 10232.8017578125 L -11428.5 10233.5 Z"/><path class="e" d="M -11428.5107421875 10233 L -11399.4521484375 10203.94140625 L -11428.3916015625 10174.9990234375 L -11925.64453125 10174.9990234375 L -11897.412109375 10203.234375 C -11897.021484375 10203.625 -11897.021484375 10204.2578125 -11897.412109375 10204.6484375 L -11925.7607421875 10233 L -11428.5107421875 10233 M -11428 10234 L -11927.9990234375 10234 L -11927.9990234375 10233.82421875 L -11898.119140625 10203.94140625 L -11927.9990234375 10174.05859375 L -11927.9990234375 10173.9990234375 L -11428 10173.9990234375 L -11428 10174.0205078125 L -11427.9775390625 10173.9990234375 L -11398.0380859375 10203.94140625 L -11427.9775390625 10233.880859375 L -11428 10233.8623046875 L -11428 10233.9990234375 L -11428 10234 Z"/></g><g transform="translate(-11351 19314)"><text class="b" transform="translate(40.002 21.001)"><tspan x="0" y="0">Evaluation</tspan></text><path class="c" d="M16,32A15.995,15.995,0,0,1,4.688,4.686,16,16,0,1,1,16,32Zm-1.867-9.765v1.3A2.461,2.461,0,0,1,11.686,26h11.2a2.461,2.461,0,0,0,2.447-2.469v-.712a.584.584,0,0,0-.584-.584ZM7.953,6A2.46,2.46,0,0,1,10.4,8.469V23.531a1.286,1.286,0,1,0,2.572,0V21.647a.585.585,0,0,1,.58-.587H21.6V8.469A2.461,2.461,0,0,0,19.154,6Zm0,1.174a1.3,1.3,0,0,0,0,2.594H9.238v-1.3A1.293,1.293,0,0,0,7.951,7.172Zm9.918,12.552a1.841,1.841,0,1,1,1.824-1.841A1.837,1.837,0,0,1,17.869,19.724Zm0-2.511a.669.669,0,1,0,.666.667A.665.665,0,0,0,17.865,17.213Zm-3.732,1.254H12.889a.586.586,0,0,1,0-1.172h1.244a.586.586,0,0,1,0,1.172ZM19.111,14.7H12.889a.586.586,0,0,1,0-1.172h6.223a.586.586,0,0,1,0,1.172Zm0-2.511H12.889a.586.586,0,0,1,0-1.172h6.223a.586.586,0,0,1,0,1.172Zm0-2.511H12.889a.586.586,0,0,1,0-1.172h6.223a.586.586,0,0,1,0,1.172Z" transform="translate(0 0.001)"/></g></g></svg>