<svg xmlns="http://www.w3.org/2000/svg" width="615.882" height="60" viewBox="0 0 615.882 60"><defs><style>.a{fill:#ffb27f;stroke-linecap:round;stroke-linejoin:round;}.b,.c{fill:#fff;}.b{font-size:14px;font-family:Muli-SemiBold, Muli;font-weight:600;}.d,.e{stroke:none;}.e{fill:#fff;}</style></defs><g transform="translate(-367 -9126)"><g class="a" transform="translate(367 9126)"><path class="d" d="M 585.6155395507812 59.50030517578125 L 29.99970245361328 59.50030517578125 C 26.01708793640137 59.50030517578125 22.15393447875977 58.72038269042969 18.51739501953125 57.18222808837891 C 15.00462627410889 55.69638061523438 11.84978008270264 53.56922912597656 9.140395164489746 50.85984420776367 C 6.431010723114014 48.15038299560547 4.30385684967041 44.99538040161133 2.818087816238403 41.48253631591797 C 1.27993381023407 37.84592056274414 0.5000107884407043 33.98246002197266 0.5000107884407043 29.99968910217285 C 0.5000107884407043 26.01715087890625 1.27993381023407 22.1539192199707 2.818087816238403 18.51738166809082 C 4.30385684967041 15.00461196899414 6.431010723114014 11.84976577758789 9.140395164489746 9.140381813049316 C 11.84978008270264 6.430996894836426 15.00462627410889 4.303843021392822 18.51739501953125 2.818073749542236 C 22.15393447875977 1.279919862747192 26.01716423034668 0.4999968409538269 29.99970245361328 0.4999968409538269 L 585.7343139648438 0.4999968409538269 L 615.1746215820312 29.94122123718262 L 585.6464233398438 59.46945953369141 L 585.6155395507812 59.50030517578125 Z"/><path class="e" d="M 585.408447265625 59.00030517578125 L 614.467529296875 29.94125556945801 L 585.5271606445312 0.9999968409538269 L 29.99970245361328 0.9999968409538269 C 26.08439445495605 0.9999968409538269 22.28670310974121 1.76661217212677 18.7121639251709 3.27853536605835 C 15.25901031494141 4.739150524139404 12.15754890441895 6.830304622650146 9.49393367767334 9.49392032623291 C 6.830318450927734 12.15753555297852 4.73916482925415 15.25899696350098 3.278549194335938 18.71215057373047 C 1.766626119613647 22.28668975830078 1.00001072883606 26.08438110351562 1.00001072883606 29.99968910217285 C 1.00001072883606 33.91522598266602 1.766626119613647 37.71307373046875 3.278549194335938 41.28776550292969 C 4.73916482925415 44.74107360839844 6.830318450927734 47.84261322021484 9.49393367767334 50.50630569458008 C 12.15754890441895 53.16991806030273 15.25901031494141 55.26115036010742 18.7121639251709 56.72168731689453 C 22.28670310974121 58.23368835449219 26.08439445495605 59.00030517578125 29.99970245361328 59.00030517578125 L 585.408447265625 59.00030517578125 M 585.9999389648438 60.00030517578125 L 29.99970245361328 60.00030517578125 C 13.43162631988525 60.00030517578125 1.077974775398616e-05 46.56868743896484 1.077974775398616e-05 29.99968910217285 C 1.077974775398616e-05 13.43161201477051 13.43162631988525 -3.165611815347802e-06 29.99970245361328 -3.165611815347802e-06 L 585.9999389648438 -3.165611815347802e-06 L 585.9999389648438 0.05853529646992683 L 615.8817138671875 29.94122695922852 L 585.9999389648438 59.822998046875 L 585.9999389648438 60.00030517578125 Z"/></g><g transform="translate(594.117 9140)"><text class="b" transform="translate(40.002 21.001)"><tspan x="0" y="0">Evidence Captured</tspan></text><g transform="translate(13486.883 1468.999)"><path class="c" d="M-1519-20783a15.893,15.893,0,0,1-11.315-4.689A15.893,15.893,0,0,1-1535-20799a15.894,15.894,0,0,1,4.686-11.314A15.893,15.893,0,0,1-1519-20815a15.893,15.893,0,0,1,11.313,4.686A15.9,15.9,0,0,1-1503-20799a15.9,15.9,0,0,1-4.688,11.313A15.893,15.893,0,0,1-1519-20783Zm-.031-24-6.969,4v8l6.969,4,7.031-4.033-.063-7.967-6.969-4Zm.705,13.941v-5.516l4.874-2.77v3.172l-2.225,1.238v2.346l-2.647,1.527Zm-1.405,0v0l-2.647-1.527v-2.346l-2.231-1.238v-3.172l4.879,2.77v5.516Zm.69-6.775v0l-4.868-2.762,2.607-1.5,2.288,1.311,2.272-1.295,2.581,1.463-4.879,2.787Z" transform="translate(-11952 19346)"/></g></g></g></svg>