<svg xmlns="http://www.w3.org/2000/svg" width="587.983" height="60" viewBox="0 0 587.983 60"><defs><style>.a{fill:#ff6700;stroke-linecap:round;stroke-linejoin:round;}.b,.c{fill:#fff;}.b{font-size:14px;font-family:Muli-Medium, Muli;font-weight:500;}.d,.e{stroke:none;}.e{fill:rgba(112,112,112,0.4);}</style></defs><g transform="translate(15750 10707)"><g class="a" transform="translate(-15750 -10707)"><path class="d" d="M30,60A30,30,0,0,1,30,0H558l29.982,29.982L558,59.963h0V60Z"/><path class="e" d="M 557.7974243164062 59.60029220581055 L 587.4168701171875 29.98171806335449 L 557.835205078125 0.4000078141689301 L 29.99973106384277 0.4000078141689301 C 26.00366020202637 0.4000078141689301 22.12737464904785 1.182579278945923 18.47844505310059 2.725936412811279 C 14.95373153686523 4.216793537139893 11.78823089599609 6.351150512695312 9.069659233093262 9.069650650024414 C 6.351159572601318 11.78822231292725 4.216802597045898 14.95372200012207 2.725945234298706 18.47843551635742 C 1.182588219642639 22.12736511230469 0.4000167846679688 26.0036506652832 0.4000167846679688 29.99972152709961 C 0.4000167846679688 33.99600601196289 1.182588219642639 37.87250900268555 2.725945234298706 41.52150726318359 C 4.216802597045898 45.04629516601562 6.351159572601318 48.21193695068359 9.069659233093262 50.93050765991211 C 11.78815937042236 53.64915084838867 14.95373153686523 55.78350830078125 18.47844505310059 57.2742919921875 C 22.12737464904785 58.81772232055664 26.00366020202637 59.60029220581055 29.99973106384277 59.60029220581055 L 557.7974243164062 59.60029220581055 M 558 60.00029373168945 L 29.99973106384277 60.00029373168945 C 13.4315881729126 60.00029373168945 1.677594809734728e-05 46.56872177124023 1.677594809734728e-05 29.99972152709961 C 1.677594809734728e-05 13.43157958984375 13.4315881729126 7.823398846085183e-06 29.99973106384277 7.823398846085183e-06 L 558 7.823398846085183e-06 L 558 0.000936394848395139 L 558.0009155273438 7.823398846085183e-06 L 587.9826049804688 29.98172187805176 L 558.0009155273438 59.96250915527344 L 558 59.96157836914062 L 558 60.00029373168945 Z"/></g><g transform="translate(-15581.018 -10693.001)"><text class="b" transform="translate(40.002 21.001)"><tspan x="0" y="0">Experiment Implementation</tspan></text><path class="c" d="M16,32A15.995,15.995,0,0,1,4.688,4.686,16,16,0,1,1,16,32Zm-1.867-9.765v1.3A2.461,2.461,0,0,1,11.686,26h11.2a2.461,2.461,0,0,0,2.447-2.469v-.712a.584.584,0,0,0-.584-.584ZM7.953,6A2.46,2.46,0,0,1,10.4,8.469V23.531a1.286,1.286,0,1,0,2.572,0V21.647a.585.585,0,0,1,.58-.587H21.6V8.469A2.461,2.461,0,0,0,19.154,6Zm0,1.174a1.3,1.3,0,0,0,0,2.594H9.238v-1.3A1.293,1.293,0,0,0,7.951,7.172Zm9.918,12.552a1.841,1.841,0,1,1,1.824-1.841A1.837,1.837,0,0,1,17.869,19.724Zm0-2.511a.669.669,0,1,0,.666.667A.665.665,0,0,0,17.865,17.213Zm-3.732,1.254H12.889a.586.586,0,0,1,0-1.172h1.244a.586.586,0,0,1,0,1.172ZM19.111,14.7H12.889a.586.586,0,0,1,0-1.172h6.223a.586.586,0,0,1,0,1.172Zm0-2.511H12.889a.586.586,0,0,1,0-1.172h6.223a.586.586,0,0,1,0,1.172Zm0-2.511H12.889a.586.586,0,0,1,0-1.172h6.223a.586.586,0,0,1,0,1.172Z" transform="translate(0 0.001)"/></g></g></svg>