<svg xmlns="http://www.w3.org/2000/svg" width="300.667" height="60" viewBox="0 0 300.667 60"><defs><style>.a{fill:#6eb144;stroke-linecap:round;stroke-linejoin:round;}.b,.c{fill:#fff;}.b{font-size:14px;font-family:Muli-SemiBold, Muli;font-weight:600;}.d,.e{stroke:none;}.e{fill:#fff;}</style></defs><g transform="translate(14935 11298)"><g class="a" transform="translate(-14935 -11297.999)"><path class="d" d="M 271.3718872070312 59.79939270019531 L 0.4360454678535461 59.79939270019531 L 29.31865501403809 30.12031555175781 L 29.45438575744629 29.98081588745117 L 29.31865501403809 29.84135437011719 L 0.4745634496212006 0.2000082433223724 L 271.4077453613281 0.2000082433223724 L 300.388427734375 29.98083686828613 L 271.3718872070312 59.79939270019531 Z"/><path class="e" d="M 271.2874450683594 59.59939193725586 L 300.109375 29.98081970214844 L 271.3233642578125 0.4000082314014435 L 0.9482396841049194 0.4000082314014435 L 29.46196365356445 29.70185470581055 C 29.61307907104492 29.85712432861328 29.61307907104492 30.10450744628906 29.46196365356445 30.2597770690918 L 0.9097049236297607 59.59939193725586 L 271.2874450683594 59.59939193725586 M 271.4922180175781 59.99939346313477 L 1.52118388996314e-06 59.99939346313477 L 1.52118388996314e-06 59.96066284179688 L 29.1753101348877 29.98081588745117 L 0.0008861365495249629 8.238572263508104e-06 L 271.4922180175781 8.238572263508104e-06 L 300.6675109863281 29.98081588745117 L 271.4931030273438 59.96158599853516 L 271.4922790527344 59.99843215942383 L 271.4922180175781 59.99939346313477 Z"/></g><g transform="translate(-14879.966 -11284)"><text class="b" transform="translate(40.002 21.001)"><tspan x="0" y="0">Impact On Your Project</tspan></text><g transform="translate(13486.966 1469)"><path class="c" d="M-10472-24584a15.9,15.9,0,0,1-11.316-4.687A15.9,15.9,0,0,1-10488-24600a15.9,15.9,0,0,1,4.685-11.314A15.9,15.9,0,0,1-10472-24616a15.9,15.9,0,0,1,11.313,4.688A15.9,15.9,0,0,1-10456-24600a15.9,15.9,0,0,1-4.687,11.313A15.9,15.9,0,0,1-10472-24584Zm-.031-24h0l-6.968,4v8l6.968,4,7.03-4.035-.062-7.963-6.969-4Zm.705,13.943v-5.516l4.875-2.773v3.174l-2.23,1.242v2.342l-2.642,1.529Zm-1.409,0,0,0-2.642-1.529v-2.348l-2.23-1.236v-3.174l4.873,2.773v5.516Zm.692-6.775v0l-4.867-2.766,2.606-1.5,2.286,1.311,2.272-1.293,2.583,1.465-4.879,2.785Z" transform="translate(-2999 23147)"/></g></g></g></svg>