<svg xmlns="http://www.w3.org/2000/svg" width="300.667" height="60" viewBox="0 0 300.667 60"><defs><style>.a{fill:#eee;stroke-linecap:round;stroke-linejoin:round;}.b,.c{fill:#888;}.b{font-size:14px;font-family:Muli-SemiBold, Muli;font-weight:600;}.d{fill:#e4e4e4;}.e,.f{stroke:none;}.f{fill:#fff;}</style></defs><g transform="translate(14935 11179)"><g class="a" transform="translate(-14935 -11178.999)"><path class="e" d="M 271.3718872070312 59.79939270019531 L 0.4360454678535461 59.79939270019531 L 29.31865501403809 30.12031555175781 L 29.45438575744629 29.98081588745117 L 29.31865501403809 29.84135437011719 L 0.4745634496212006 0.2000082433223724 L 271.4077453613281 0.2000082433223724 L 300.388427734375 29.98083686828613 L 271.3718872070312 59.79939270019531 Z"/><path class="f" d="M 271.2874450683594 59.59939193725586 L 300.109375 29.98081970214844 L 271.3233642578125 0.4000082314014435 L 0.9482396841049194 0.4000082314014435 L 29.46196365356445 29.70185470581055 C 29.61307907104492 29.85712432861328 29.61307907104492 30.10450744628906 29.46196365356445 30.2597770690918 L 0.9097049236297607 59.59939193725586 L 271.2874450683594 59.59939193725586 M 271.4922180175781 59.99939346313477 L 1.52118388996314e-06 59.99939346313477 L 1.52118388996314e-06 59.96066284179688 L 29.1753101348877 29.98081588745117 L 0.0008861365495249629 8.238572263508104e-06 L 271.4922180175781 8.238572263508104e-06 L 300.6675109863281 29.98081588745117 L 271.4931030273438 59.96158599853516 L 271.4922790527344 59.99843215942383 L 271.4922180175781 59.99939346313477 Z"/></g><g transform="translate(-14879.966 -11165)"><text class="b" transform="translate(40.002 21.001)"><tspan x="0" y="0">Impact On Your Project</tspan></text><g transform="translate(13486.966 1469)"><circle class="c" cx="16" cy="16" r="16" transform="translate(-13487 -1469)"/><path class="d" d="M3,4,9.97,0l6.97,4L17,11.967,9.97,16,3,12ZM4.392,5.654V8.825l2.23,1.24v2.344L9.27,13.94V8.425Zm11.159,0L10.673,8.425V13.94l2.648-1.531V10.067l2.23-1.241V5.653ZM5.089,4.4,9.958,7.163l4.88-2.787L12.257,2.912l-2.273,1.3L7.7,2.9,5.089,4.4Z" transform="translate(-13481 -1461)"/></g></g></g></svg>