<svg xmlns="http://www.w3.org/2000/svg" width="300.667" height="59.999" viewBox="0 0 300.667 59.999"><defs><style>.a{fill:#ff6701;stroke-linecap:round;stroke-linejoin:round;}.b,.c{fill:#fff;}.b{font-size:14px;font-family:Muli-Medium, Muli;font-weight:500;}.d,.e{stroke:none;}.e{fill:#fff;}</style></defs><g transform="translate(15207 10336.802)"><g class="a" transform="translate(-15207 -10336.802)"><path class="d" d="M 271.3718872070312 59.79939270019531 L 0.4360454678535461 59.79939270019531 L 29.31865501403809 30.12031555175781 L 29.45438575744629 29.98081588745117 L 29.31865501403809 29.84135437011719 L 0.4745634496212006 0.2000082433223724 L 271.4077453613281 0.2000082433223724 L 300.388427734375 29.98083686828613 L 271.3718872070312 59.79939270019531 Z"/><path class="e" d="M 271.2874450683594 59.59939193725586 L 300.109375 29.98081970214844 L 271.3233642578125 0.4000082314014435 L 0.9482396841049194 0.4000082314014435 L 29.46196365356445 29.70185470581055 C 29.61307907104492 29.85712432861328 29.61307907104492 30.10450744628906 29.46196365356445 30.2597770690918 L 0.9097049236297607 59.59939193725586 L 271.2874450683594 59.59939193725586 M 271.4922180175781 59.99939346313477 L 1.52118388996314e-06 59.99939346313477 L 1.52118388996314e-06 59.96066284179688 L 29.1753101348877 29.98081588745117 L 0.0008861365495249629 8.238572263508104e-06 L 271.4922180175781 8.238572263508104e-06 L 300.6675109863281 29.98081588745117 L 271.4931030273438 59.96158599853516 L 271.4922790527344 59.99843215942383 L 271.4922180175781 59.99939346313477 Z"/></g><g transform="translate(-15155 -10322.999)"><text class="b" transform="translate(40.001 20.999)"><tspan x="0" y="0">Interrelated Hypotheses</tspan></text><path class="c" d="M16,32A16,16,0,0,1,9.772,1.257,16,16,0,0,1,22.228,30.74,15.9,15.9,0,0,1,16,32Zm0-7.832a1.25,1.25,0,1,0,1.262,1.25A1.257,1.257,0,0,0,16,24.165Zm-5.8-2.789h0a2.486,2.486,0,0,1-.629,1.081l4,2.289a2.5,2.5,0,0,1,.632-1.083l-4-2.287Zm11.594,0h0l-4,2.287a2.523,2.523,0,0,1,.632,1.083l4-2.289a2.461,2.461,0,0,1-.632-1.081ZM16,22.915a2.607,2.607,0,0,1,.63.079v-1.37h.632a.628.628,0,0,0,.63-.625V19.948a4.383,4.383,0,0,0,.613-.352l.919.525a.624.624,0,0,0,.313.084.633.633,0,0,0,.546-.313l.316-.542,1.2.686a2.423,2.423,0,0,1,.248-.581,2.4,2.4,0,0,1,.384-.5l-1.2-.687.315-.54a.626.626,0,0,0,.064-.475.637.637,0,0,0-.294-.379L20.4,16.35c.01-.114.014-.232.014-.352s0-.235-.014-.353l.917-.522a.642.642,0,0,0,.294-.38.627.627,0,0,0-.064-.475l-.315-.541,1.2-.686a2.4,2.4,0,0,1-.384-.5,2.462,2.462,0,0,1-.248-.581l-1.2.685-.316-.541a.629.629,0,0,0-.858-.227l-.919.523a4.332,4.332,0,0,0-.613-.35V11a.628.628,0,0,0-.63-.625h-.632V9a2.551,2.551,0,0,1-1.261,0v1.371h-.63a.628.628,0,0,0-.629.625V12.05a4.23,4.23,0,0,0-.616.35l-.917-.523a.632.632,0,0,0-.861.227l-.314.541-1.2-.685a2.378,2.378,0,0,1-.245.581,2.588,2.588,0,0,1-.384.5l1.2.686-.314.541a.623.623,0,0,0,.231.854l.914.522c-.01.112-.014.23-.014.353s0,.242.014.352l-.914.525a.622.622,0,0,0-.231.854l.314.54-1.2.687a2.667,2.667,0,0,1,.384.5,2.378,2.378,0,0,1,.245.581l1.2-.686.314.542a.636.636,0,0,0,.548.313.625.625,0,0,0,.313-.084L13.5,19.6a4.255,4.255,0,0,0,.616.352V21a.628.628,0,0,0,.629.625h.63v1.37A2.573,2.573,0,0,1,16,22.915ZM24.23,19.46a1.223,1.223,0,0,0-.421.072,1.25,1.25,0,0,0-.719.643,1.233,1.233,0,0,0-.051.951,1.263,1.263,0,0,0,1.186.834h0a1.27,1.27,0,0,0,1.139-.715,1.231,1.231,0,0,0,.051-.952A1.265,1.265,0,0,0,24.23,19.46Zm-16.449,0a1.251,1.251,0,0,0-.967.451,1.231,1.231,0,0,0-.289.91,1.244,1.244,0,0,0,.448.851,1.272,1.272,0,0,0,1.778-.159,1.245,1.245,0,0,0-.162-1.762A1.275,1.275,0,0,0,7.781,19.456Zm16.449-1.25a2.522,2.522,0,0,1,.63.081V13.711a2.555,2.555,0,0,1-1.262,0v4.576A2.454,2.454,0,0,1,24.23,18.206Zm-16.456,0a2.5,2.5,0,0,1,.632.081V13.711a2.575,2.575,0,0,1-.632.079,2.644,2.644,0,0,1-.63-.079v4.576A2.489,2.489,0,0,1,7.774,18.206Zm16.464-8.158a1.272,1.272,0,0,0-1.021.516,1.224,1.224,0,0,0-.226.928,1.243,1.243,0,0,0,.506.819,1.266,1.266,0,0,0,1.761-.277,1.241,1.241,0,0,0-.277-1.745A1.259,1.259,0,0,0,24.238,10.048ZM7.777,10.041a1.275,1.275,0,0,0-.809.291,1.247,1.247,0,0,0-.162,1.761,1.265,1.265,0,0,0,.971.449,1.278,1.278,0,0,0,.808-.289,1.244,1.244,0,0,0,.162-1.762A1.263,1.263,0,0,0,7.777,10.041Zm10.655-2.79h0a2.5,2.5,0,0,1-.632,1.08l4,2.289a2.511,2.511,0,0,1,.632-1.083l-4-2.286Zm-4.86,0h0l-4,2.286a2.49,2.49,0,0,1,.629,1.083l4-2.289a2.473,2.473,0,0,1-.632-1.08ZM16,5.333a1.25,1.25,0,1,0,1.262,1.249A1.256,1.256,0,0,0,16,5.333Zm0,12.54A1.875,1.875,0,1,1,17.894,16,1.885,1.885,0,0,1,16,17.873Z"/></g></g></svg>