<svg xmlns="http://www.w3.org/2000/svg" width="558.001" height="60" viewBox="0 0 558.001 60"><defs><style>.a{fill:#6eb144;stroke-linecap:round;stroke-linejoin:round;}.b,.c{fill:#fff;}.b{font-size:14px;font-family:Muli-Medium, Muli;font-weight:500;}.d,.e{stroke:none;}.e{fill:rgba(112,112,112,0.4);}</style></defs><g transform="translate(15192 10802)"><g class="a" transform="translate(-15750 -10802)"><path class="d" d="M1086.425,60H558v-.039l29.983-29.98L558,0h528.424L1116,29.575,1086.426,59.15V60Z"/><path class="e" d="M 1086.025634765625 59.60029220581055 L 1086.026000976562 59.14943695068359 C 1086.026123046875 59.04350662231445 1086.068237304688 58.94193649291992 1086.143188476562 58.86700820922852 L 1115.435424804688 29.57486915588379 L 1086.259521484375 0.4000078141689301 L 558.9666748046875 0.4000078141689301 L 588.2655029296875 29.69886589050293 C 588.3404541015625 29.77386474609375 588.3826293945312 29.87565040588379 588.3826293945312 29.98172187805176 C 588.3826293945312 30.08779335021973 588.3404541015625 30.18957901000977 588.2655029296875 30.26457977294922 L 558.9270629882812 59.60029220581055 L 1086.025634765625 59.60029220581055 M 1086.425170898438 60.00029373168945 L 558.0001220703125 60.00029373168945 L 558 59.96157836914062 L 587.9826049804688 29.98172187805176 L 558.0009765625 7.823398846085183e-06 L 1086.425170898438 7.823398846085183e-06 L 1116.001098632812 29.57486534118652 L 1086.426025390625 59.14986419677734 L 1086.425170898438 59.99929428100586 L 1086.425170898438 60.00029373168945 Z"/></g><g transform="translate(-33893.02 -22517)"><text class="b" transform="translate(18940 11750)"><tspan x="0" y="0">Proceed To Report</tspan></text><path class="c" d="M16,32A16,16,0,0,1,4.687,4.685,16,16,0,0,1,27.314,27.313,15.9,15.9,0,0,1,16,32ZM6.586,6A.587.587,0,0,0,6,6.586V25.414A.587.587,0,0,0,6.586,26H25.414a.586.586,0,1,0,0-1.172h-.586V12.445a.587.587,0,0,0-.586-.586H20.649a.587.587,0,0,0-.586.586V24.828H18.891V15.962a.587.587,0,0,0-.586-.586H14.79a.587.587,0,0,0-.586.586v8.867H13.031V18.305a.587.587,0,0,0-.586-.586H8.93a.587.587,0,0,0-.586.586v6.523H7.172V6.586A.587.587,0,0,0,6.586,6Zm17.07,18.828H21.235v-11.8h2.422v11.8Zm-5.937,0H15.376V16.547h2.344v8.28Zm-5.86,0H9.516V18.891h2.344v5.936Z" transform="translate(18900 11729)"/></g></g></svg>